<svg width="232" height="103" viewBox="0 0 232 103" fill="none" xmlns="http://www.w3.org/2000/svg">
<g filter="url(#filter0_d_0_246)">
<path d="M228 4.99999C228 2.23857 225.761 -1.957e-07 223 -4.37111e-07L9.00002 -1.91456e-05C6.23859 -1.9387e-05 4.00002 2.23856 4.00001 4.99998L4.00001 80.9826C4.00001 83.744 6.23858 85.9826 9.00001 85.9826L123.617 85.9826C124.709 85.9826 125.77 86.3398 126.64 86.9996L135.415 93.6593C137.231 95.0373 139.75 95.0126 141.538 93.5993L149.814 87.0596C150.697 86.362 151.789 85.9826 152.914 85.9826L223 85.9826C225.761 85.9826 228 83.744 228 80.9826L228 4.99999Z" fill="#FC9B09"/>
</g>
<defs>
<filter id="filter0_d_0_246" x="0" y="0" width="232" height="102.676" filterUnits="userSpaceOnUse" color-interpolation-filters="sRGB">
<feFlood flood-opacity="0" result="BackgroundImageFix"/>
<feColorMatrix in="SourceAlpha" type="matrix" values="0 0 0 0 0 0 0 0 0 0 0 0 0 0 0 0 0 0 127 0" result="hardAlpha"/>
<feOffset dy="4"/>
<feGaussianBlur stdDeviation="2"/>
<feColorMatrix type="matrix" values="0 0 0 0 0 0 0 0 0 0 0 0 0 0 0 0 0 0 0.1 0"/>
<feBlend mode="normal" in2="BackgroundImageFix" result="effect1_dropShadow_0_246"/>
<feBlend mode="normal" in="SourceGraphic" in2="effect1_dropShadow_0_246" result="shape"/>
</filter>
</defs>
</svg>
