<svg width="31" height="31" viewBox="0 0 31 31" fill="none" xmlns="http://www.w3.org/2000/svg">
<path d="M28.093 16.1412C29.5287 14.6628 30.3945 12.7482 30.3945 10.6562C30.3945 5.97475 25.6943 2.17969 20.3438 2.17969C14.9932 2.17969 10.6562 5.97475 10.6562 10.6562L20.3438 19.1328C21.7732 19.1328 23.4941 18.8615 24.7159 18.3753C25.8225 19.585 27.4145 20.3438 29.1836 20.3438C28.046 19.2061 27.682 17.5865 28.093 16.1412Z" fill="#FC9B09"/>
<path d="M15.6483 11.8672C18.4621 13.3506 20.3438 16.0492 20.3438 19.1328C20.3438 23.8143 16.0068 27.6094 10.6562 27.6094C9.22678 27.6094 7.50592 27.3381 6.2841 26.8518C5.17747 28.0616 3.58551 28.8203 1.81641 28.8203C2.95403 27.6827 3.31802 26.0631 2.90696 24.6177C1.47134 23.1393 0.605469 21.2248 0.605469 19.1328C0.605469 14.4513 5.30566 10.6562 10.6562 10.6562C12.4824 10.6562 14.1909 11.0983 15.6483 11.8672Z" fill="white"/>
<path d="M15.5 7.62891C15.1658 7.62891 14.8945 7.90018 14.8945 8.23438C14.8945 8.56857 15.1658 8.83984 15.5 8.83984C15.8342 8.83984 16.1055 8.56857 16.1055 8.23438C16.1055 7.90018 15.8342 7.62891 15.5 7.62891Z" fill="white"/>
<path d="M5.44922 18.5273C5.78341 18.5273 6.05469 18.2561 6.05469 17.9219C6.05469 17.5877 5.78341 17.3164 5.44922 17.3164C5.11503 17.3164 4.84375 17.5877 4.84375 17.9219C4.84375 18.2561 5.11503 18.5273 5.44922 18.5273Z" fill="#C94042"/>
<path d="M20.3438 1.57422C14.8929 1.57422 10.419 5.33238 10.073 10.0662C4.88183 10.3266 0 14.0698 0 19.1328C0 21.2486 0.83725 23.2987 2.36133 24.9231C2.66288 26.1662 2.29676 27.4838 1.38832 28.3922C1.21519 28.5654 1.1634 28.8258 1.25706 29.0521C1.35072 29.2782 1.57138 29.4258 1.81641 29.4258C3.54317 29.4258 5.20727 28.7486 6.44375 27.5555C7.6483 27.966 9.21992 28.2148 10.6562 28.2148C16.1064 28.2148 20.5798 24.4576 20.9268 19.7248C22.1945 19.6685 23.513 19.4344 24.5563 19.0789C25.7927 20.2721 27.4568 20.9492 29.1836 20.9492C29.4286 20.9492 29.6493 20.8016 29.7429 20.5755C29.8366 20.3492 29.7848 20.0888 29.6117 19.9157C28.7032 19.0072 28.3371 17.6896 28.6387 16.4465C30.1628 14.8222 31 12.7721 31 10.6562C31 5.39553 25.7421 1.57422 20.3438 1.57422ZM10.6562 27.0039C9.22725 27.0039 7.59887 26.7234 6.50808 26.2894C6.27441 26.1962 6.00739 26.2575 5.83733 26.4431C5.10628 27.2423 4.15574 27.7995 3.12006 28.0557C3.69076 26.9623 3.83645 25.6733 3.48925 24.452C3.46181 24.3557 3.41096 24.2677 3.34119 24.196C1.96754 22.7812 1.21094 20.983 1.21094 19.1328C1.21094 14.8661 5.53625 11.2617 10.6562 11.2617C15.491 11.2617 19.7383 14.6237 19.7383 19.1328C19.7383 23.473 15.6641 27.0039 10.6562 27.0039ZM27.6588 15.7195C27.589 15.7914 27.5382 15.8794 27.5107 15.9754C27.1636 17.1967 27.3092 18.4857 27.8799 19.5791C26.8443 19.3232 25.8937 18.7657 25.1627 17.9666C24.9926 17.7812 24.7256 17.7197 24.4919 17.8128C23.5466 18.1889 22.198 18.4493 20.9249 18.5122C20.7479 16.2225 19.6058 14.0705 17.6532 12.4727H25.5508C25.8852 12.4727 26.1562 12.2016 26.1562 11.8672C26.1562 11.5328 25.8852 11.2617 25.5508 11.2617H15.793C14.4187 10.5621 12.8754 10.1541 11.287 10.0685C11.6349 6.00195 15.5641 2.78516 20.3438 2.78516C25.4637 2.78516 29.7891 6.38959 29.7891 10.6562C29.7891 12.5065 29.0325 14.3047 27.6588 15.7195Z" fill="#37373F"/>
<path d="M15.5 17.3164H7.87109C7.53667 17.3164 7.26562 17.5874 7.26562 17.9219C7.26562 18.2563 7.53667 18.5273 7.87109 18.5273H15.5C15.8344 18.5273 16.1055 18.2563 16.1055 17.9219C16.1055 17.5874 15.8344 17.3164 15.5 17.3164Z" fill="#C94042"/>
<path d="M15.5 20.9492H5.44922C5.11479 20.9492 4.84375 21.2203 4.84375 21.5547C4.84375 21.8891 5.11479 22.1602 5.44922 22.1602H15.5C15.8344 22.1602 16.1055 21.8891 16.1055 21.5547C16.1055 21.2203 15.8344 20.9492 15.5 20.9492Z" fill="#37373F"/>
<path d="M25.5508 7.62891H17.9219C17.5874 7.62891 17.3164 7.89995 17.3164 8.23438C17.3164 8.5688 17.5874 8.83984 17.9219 8.83984H25.5508C25.8852 8.83984 26.1562 8.5688 26.1562 8.23438C26.1562 7.89995 25.8852 7.62891 25.5508 7.62891Z" fill="white"/>
</svg>
