<svg width="40" height="37" fill="none" xmlns="http://www.w3.org/2000/svg"><path fill="#fff" d="M0 0h40v37H0z"/><path d="M32.262 28.237c2.52-2.71 3.907-6.169 3.907-9.737 0-8.248-7.254-14.958-16.17-14.958-8.917 0-16.17 6.71-16.17 14.958 0 8.247 7.253 14.957 16.17 14.957 3.857 0 7.596-1.283 10.526-3.613a.675.675 0 01.891.054c.313-.268.615-.547.905-.836a.56.56 0 01-.059-.825zM19.36 5.314c0-.326.286-.59.638-.59.353 0 .639.264.639.59v2.361c0 .327-.286.59-.639.59-.352 0-.638-.263-.638-.59V5.314zM8.296 19.09H5.743c-.352 0-.638-.264-.638-.59 0-.326.286-.59.638-.59h2.553c.353 0 .639.264.639.59 0 .326-.286.59-.639.59zm12.34 12.596c0 .326-.285.59-.638.59-.352 0-.638-.264-.638-.59v-2.362c0-.326.286-.59.638-.59.353 0 .639.264.639.59v2.362zm9.894-20.423l-8.227 7.61c-.191 1.016-1.152 1.792-2.305 1.792-.414 0-.802-.1-1.14-.275l-6.68 6.178a.664.664 0 01-.45.173.663.663 0 01-.452-.173.56.56 0 010-.835l6.68-6.178a2.048 2.048 0 01-.263-.682l-5.518-5.105a.56.56 0 010-.835l1.805-1.67c.25-.23.654-.23.903 0l5.518 5.105.081.014.87-.805a.56.56 0 010-.834l6.47-5.985a.665.665 0 01.451-.172c.17 0 .332.062.451.172l1.806 1.67a.56.56 0 010 .835zm1.17 7.827c-.352 0-.638-.264-.638-.59 0-.326.286-.59.639-.59h2.553c.352 0 .638.264.638.59 0 .326-.286.59-.638.59H31.7z" fill="#C7C7C7"/><path d="M32.262 28.237c2.52-2.71 3.907-6.169 3.907-9.737 0-8.248-7.254-14.958-16.17-14.958-8.917 0-16.17 6.71-16.17 14.958 0 8.247 7.253 14.957 16.17 14.957 3.857 0 7.596-1.283 10.526-3.613a.675.675 0 01.891.054c.313-.268.615-.547.905-.836a.56.56 0 01-.059-.825zM19.36 5.314c0-.326.286-.59.638-.59.353 0 .639.264.639.59v2.361c0 .327-.286.59-.639.59-.352 0-.638-.263-.638-.59V5.314zM8.296 19.09H5.743c-.352 0-.638-.264-.638-.59 0-.326.286-.59.638-.59h2.553c.353 0 .639.264.639.59 0 .326-.286.59-.639.59zm12.34 12.596c0 .326-.285.59-.638.59-.352 0-.638-.264-.638-.59v-2.362c0-.326.286-.59.638-.59.353 0 .639.264.639.59v2.362zm9.894-20.423l-8.227 7.61c-.191 1.016-1.152 1.792-2.305 1.792-.414 0-.802-.1-1.14-.275l-6.68 6.178a.664.664 0 01-.45.173.663.663 0 01-.452-.173.56.56 0 010-.835l6.68-6.178a2.048 2.048 0 01-.263-.682l-5.518-5.105a.56.56 0 010-.835l1.805-1.67c.25-.23.654-.23.903 0l5.518 5.105.081.014.87-.805a.56.56 0 010-.834l6.47-5.985a.665.665 0 01.451-.172c.17 0 .332.062.451.172l1.806 1.67a.56.56 0 010 .835zm1.17 7.827c-.352 0-.638-.264-.638-.59 0-.326.286-.59.639-.59h2.553c.352 0 .638.264.638.59 0 .326-.286.59-.638.59H31.7z" fill="url(#paint0_linear_0_74)"/><path d="M17.957 17.445a2.28 2.28 0 01.902-.835l-4.426-4.094-.903.835 4.427 4.094z" fill="#C7C7C7"/><path d="M17.957 17.445a2.28 2.28 0 01.902-.835l-4.426-4.094-.903.835 4.427 4.094z" fill="url(#paint1_linear_0_74)"/><path d="M22.042 17.445l7.135-6.599-.903-.835-6.018 5.567a.676.676 0 01-.903 0l-.87.804a2.34 2.34 0 011.56 1.063z" fill="#C7C7C7"/><path d="M22.042 17.445l7.135-6.599-.903-.835-6.018 5.567a.676.676 0 01-.903 0l-.87.804a2.34 2.34 0 011.56 1.063z" fill="url(#paint2_linear_0_74)"/><path d="M20.003 1.181c-10.324 0-18.724 7.77-18.724 17.32s8.4 17.318 18.724 17.318S38.726 28.05 38.726 18.5c0-9.55-8.4-17.319-18.723-17.319zm13.232 27.826a.675.675 0 01-.9.063l-.01-.008c-.29.29-.591.569-.904.837l.008.008c.23.247.2.62-.068.833-3.162 2.514-7.195 3.899-11.358 3.899-9.62 0-17.447-7.24-17.447-16.139 0-8.898 7.826-16.138 17.447-16.138 9.62 0 17.447 7.24 17.447 16.138 0 3.851-1.497 7.582-4.215 10.507z" fill="#C7C7C7"/><path d="M20.003 1.181c-10.324 0-18.724 7.77-18.724 17.32s8.4 17.318 18.724 17.318S38.726 28.05 38.726 18.5c0-9.55-8.4-17.319-18.723-17.319zm13.232 27.826a.675.675 0 01-.9.063l-.01-.008c-.29.29-.591.569-.904.837l.008.008c.23.247.2.62-.068.833-3.162 2.514-7.195 3.899-11.358 3.899-9.62 0-17.447-7.24-17.447-16.139 0-8.898 7.826-16.138 17.447-16.138 9.62 0 17.447 7.24 17.447 16.138 0 3.851-1.497 7.582-4.215 10.507z" fill="url(#paint3_linear_0_74)"/><path d="M34.142 5.419C30.365 1.924 25.342 0 20 0 14.658 0 9.635 1.924 5.858 5.419 2.08 8.913 0 13.559 0 18.5c0 4.942 2.08 9.587 5.858 13.081C9.635 35.076 14.658 37 20 37c5.342 0 10.365-1.924 14.142-5.419C37.92 28.087 40 23.441 40 18.5c0-4.941-2.08-9.587-5.858-13.081zM20 35.819C9.676 35.82 1.277 28.05 1.277 18.5 1.277 8.95 9.676 1.18 20 1.18S38.723 8.95 38.723 18.5 30.324 35.82 20 35.82z" fill="#C7C7C7"/><path d="M34.142 5.419C30.365 1.924 25.342 0 20 0 14.658 0 9.635 1.924 5.858 5.419 2.08 8.913 0 13.559 0 18.5c0 4.942 2.08 9.587 5.858 13.081C9.635 35.076 14.658 37 20 37c5.342 0 10.365-1.924 14.142-5.419C37.92 28.087 40 23.441 40 18.5c0-4.941-2.08-9.587-5.858-13.081zM20 35.819C9.676 35.82 1.277 28.05 1.277 18.5 1.277 8.95 9.676 1.18 20 1.18S38.723 8.95 38.723 18.5 30.324 35.82 20 35.82z" fill="url(#paint4_linear_0_74)"/><path d="M21.063 18.5c0-.543-.477-.984-1.064-.984-.586 0-1.063.442-1.063.984 0 .543.477.984 1.063.984.587 0 1.064-.441 1.064-.984z" fill="#C7C7C7"/><path d="M21.063 18.5c0-.543-.477-.984-1.064-.984-.586 0-1.063.442-1.063.984 0 .543.477.984 1.063.984.587 0 1.064-.441 1.064-.984z" fill="url(#paint5_linear_0_74)"/><path d="M34.894 18.5c0-.326-.285-.59-.638-.59h-2.553c-.353 0-.639.264-.639.59 0 .326.286.59.639.59h2.553c.352 0 .638-.264.638-.59z" fill="#C7C7C7"/><path d="M34.894 18.5c0-.326-.285-.59-.638-.59h-2.553c-.353 0-.639.264-.639.59 0 .326.286.59.639.59h2.553c.352 0 .638-.264.638-.59z" fill="url(#paint6_linear_0_74)"/><path d="M20.003 28.734c-.352 0-.638.264-.638.59v2.362c0 .326.286.59.639.59.352 0 .638-.264.638-.59v-2.362c0-.326-.286-.59-.639-.59z" fill="#C7C7C7"/><path d="M20.003 28.734c-.352 0-.638.264-.638.59v2.362c0 .326.286.59.639.59.352 0 .638-.264.638-.59v-2.362c0-.326-.286-.59-.639-.59z" fill="url(#paint7_linear_0_74)"/><path d="M8.299 17.91H5.746c-.353 0-.639.264-.639.59 0 .326.286.59.639.59h2.553c.352 0 .638-.264.638-.59 0-.326-.286-.59-.638-.59z" fill="#C7C7C7"/><path d="M8.299 17.91H5.746c-.353 0-.639.264-.639.59 0 .326.286.59.639.59h2.553c.352 0 .638-.264.638-.59 0-.326-.286-.59-.638-.59z" fill="url(#paint8_linear_0_74)"/><path d="M28.729 8.758a.665.665 0 00-.452-.173.665.665 0 00-.45.173l-6.47 5.985a.56.56 0 000 .834.674.674 0 00.902 0l6.018-5.566.903.835-7.134 6.6a2.342 2.342 0 00-1.56-1.064l-.08-.014-5.519-5.105a.675.675 0 00-.902 0l-1.806 1.67a.56.56 0 000 .835l5.519 5.105c.046.243.136.473.262.681l-6.68 6.179a.56.56 0 000 .835.664.664 0 00.452.173.663.663 0 00.451-.173l6.68-6.178c.337.174.726.275 1.14.275 1.153 0 2.113-.776 2.305-1.792l8.226-7.61a.56.56 0 000-.835l-1.805-1.67zm-9.866 7.852a2.275 2.275 0 00-.903.835l-4.427-4.094.903-.835 4.427 4.094zm.076 1.89c0-.543.477-.984 1.064-.984.586 0 1.064.441 1.064.984 0 .543-.478.984-1.064.984-.587 0-1.064-.441-1.064-.984z" fill="#C7C7C7"/><path d="M28.729 8.758a.665.665 0 00-.452-.173.665.665 0 00-.45.173l-6.47 5.985a.56.56 0 000 .834.674.674 0 00.902 0l6.018-5.566.903.835-7.134 6.6a2.342 2.342 0 00-1.56-1.064l-.08-.014-5.519-5.105a.675.675 0 00-.902 0l-1.806 1.67a.56.56 0 000 .835l5.519 5.105c.046.243.136.473.262.681l-6.68 6.179a.56.56 0 000 .835.664.664 0 00.452.173.663.663 0 00.451-.173l6.68-6.178c.337.174.726.275 1.14.275 1.153 0 2.113-.776 2.305-1.792l8.226-7.61a.56.56 0 000-.835l-1.805-1.67zm-9.866 7.852a2.275 2.275 0 00-.903.835l-4.427-4.094.903-.835 4.427 4.094zm.076 1.89c0-.543.477-.984 1.064-.984.586 0 1.064.441 1.064.984 0 .543-.478.984-1.064.984-.587 0-1.064-.441-1.064-.984z" fill="url(#paint9_linear_0_74)"/><path d="M20 2.362c-9.62 0-17.446 7.24-17.446 16.138 0 8.899 7.826 16.138 17.447 16.138 4.162 0 8.196-1.384 11.358-3.898a.56.56 0 00.068-.833l-.008-.009a.675.675 0 00-.892-.054c-2.93 2.33-6.669 3.613-10.527 3.613-8.916 0-16.17-6.71-16.17-14.957 0-8.248 7.254-14.958 16.17-14.958 8.917 0 16.17 6.71 16.17 14.958 0 3.568-1.387 7.026-3.906 9.737a.56.56 0 00.06.825l.008.008c.268.212.67.184.9-.063 2.719-2.925 4.215-6.656 4.215-10.507 0-8.9-7.826-16.138-17.447-16.138z" fill="#C7C7C7"/><path d="M20 2.362c-9.62 0-17.446 7.24-17.446 16.138 0 8.899 7.826 16.138 17.447 16.138 4.162 0 8.196-1.384 11.358-3.898a.56.56 0 00.068-.833l-.008-.009a.675.675 0 00-.892-.054c-2.93 2.33-6.669 3.613-10.527 3.613-8.916 0-16.17-6.71-16.17-14.957 0-8.248 7.254-14.958 16.17-14.958 8.917 0 16.17 6.71 16.17 14.958 0 3.568-1.387 7.026-3.906 9.737a.56.56 0 00.06.825l.008.008c.268.212.67.184.9-.063 2.719-2.925 4.215-6.656 4.215-10.507 0-8.9-7.826-16.138-17.447-16.138z" fill="url(#paint10_linear_0_74)"/><defs><linearGradient id="paint0_linear_0_74" x1="19.998" y1="3.542" x2="19.998" y2="33.457" gradientUnits="userSpaceOnUse"><stop stop-color="#fff"/><stop offset="1" stop-color="#fff" stop-opacity="0"/></linearGradient><linearGradient id="paint1_linear_0_74" x1="16.195" y1="12.516" x2="16.195" y2="17.445" gradientUnits="userSpaceOnUse"><stop stop-color="#fff"/><stop offset="1" stop-color="#fff" stop-opacity="0"/></linearGradient><linearGradient id="paint2_linear_0_74" x1="24.83" y1="10.011" x2="24.83" y2="17.445" gradientUnits="userSpaceOnUse"><stop stop-color="#fff"/><stop offset="1" stop-color="#fff" stop-opacity="0"/></linearGradient><linearGradient id="paint3_linear_0_74" x1="20.003" y1="1.181" x2="20.003" y2="35.819" gradientUnits="userSpaceOnUse"><stop stop-color="#fff"/><stop offset="1" stop-color="#fff" stop-opacity="0"/></linearGradient><linearGradient id="paint4_linear_0_74" x1="20" y1="0" x2="20" y2="37" gradientUnits="userSpaceOnUse"><stop stop-color="#fff"/><stop offset="1" stop-color="#fff" stop-opacity="0"/></linearGradient><linearGradient id="paint5_linear_0_74" x1="19.999" y1="17.516" x2="19.999" y2="19.484" gradientUnits="userSpaceOnUse"><stop stop-color="#fff"/><stop offset="1" stop-color="#fff" stop-opacity="0"/></linearGradient><linearGradient id="paint6_linear_0_74" x1="32.979" y1="17.909" x2="32.979" y2="19.09" gradientUnits="userSpaceOnUse"><stop stop-color="#fff"/><stop offset="1" stop-color="#fff" stop-opacity="0"/></linearGradient><linearGradient id="paint7_linear_0_74" x1="20.003" y1="28.734" x2="20.003" y2="32.276" gradientUnits="userSpaceOnUse"><stop stop-color="#fff"/><stop offset="1" stop-color="#fff" stop-opacity="0"/></linearGradient><linearGradient id="paint8_linear_0_74" x1="7.022" y1="17.909" x2="7.022" y2="19.09" gradientUnits="userSpaceOnUse"><stop stop-color="#fff"/><stop offset="1" stop-color="#fff" stop-opacity="0"/></linearGradient><linearGradient id="paint9_linear_0_74" x1="20.907" y1="8.585" x2="20.907" y2="26.741" gradientUnits="userSpaceOnUse"><stop stop-color="#fff"/><stop offset="1" stop-color="#fff" stop-opacity="0"/></linearGradient><linearGradient id="paint10_linear_0_74" x1="20" y1="2.362" x2="20" y2="34.638" gradientUnits="userSpaceOnUse"><stop stop-color="#fff"/><stop offset="1" stop-color="#fff" stop-opacity="0"/></linearGradient></defs></svg>