<svg width="26" height="26" fill="none" xmlns="http://www.w3.org/2000/svg"><path fill-rule="evenodd" clip-rule="evenodd" d="M23.379 0H2.989a2.559 2.559 0 00-2.55 2.55v20.397a2.559 2.559 0 002.55 2.55h20.39a2.553 2.553 0 002.55-2.55v-20.4A2.552 2.552 0 0023.38 0zm-10.19 7.648a5.1 5.1 0 11-5.1 5.1 5.11 5.11 0 015.1-5.101v.001zm-9.56 15.3a.6.6 0 01-.64-.637V11.472h2.68a4.257 4.257 0 00-.13 1.275 7.645 7.645 0 0015.29 0 4.56 4.56 0 00-.12-1.275h2.67v10.835a.6.6 0 01-.63.637H3.629v.004zM23.379 5.74a.6.6 0 01-.63.637h-2.55a.602.602 0 01-.64-.637V3.19a.6.6 0 01.64-.636h2.55a.6.6 0 01.63.636v2.55z" fill="#37373F"/></svg>