<svg width="33" height="33" fill="none" xmlns="http://www.w3.org/2000/svg"><path d="M25.143 8.726A8.643 8.643 0 0016.5.082a8.643 8.643 0 00-8.644 8.644c0 6.84 8.644 16.962 8.644 16.962s8.644-10.157 8.644-16.962zM12.236 8.21a4.264 4.264 0 118.527 0 4.264 4.264 0 01-8.527 0z" fill="#37373F"/><path d="M16.5 10.306a2.096 2.096 0 10-.001-4.193 2.096 2.096 0 000 4.193z" fill="#C94042"/><path d="M21.386 22.68a61.419 61.419 0 01-1.916 2.618c5.462.328 9.042 1.508 10.374 2.385-1.56 1.028-6.196 2.475-13.344 2.475-7.147 0-11.783-1.447-13.343-2.475 1.332-.877 4.909-2.056 10.365-2.384a60.51 60.51 0 01-1.919-2.617C4.882 23.344 0 25.332 0 27.682c0 2.891 7.388 5.236 16.5 5.236 9.113 0 16.5-2.344 16.5-5.236.001-2.351-4.886-4.34-11.614-5.001z" fill="#37373F"/></svg>