<svg width="35" height="35" fill="none" xmlns="http://www.w3.org/2000/svg"><path fill-rule="evenodd" clip-rule="evenodd" d="M25.5 9.685h-2.44V8.56a.56.56 0 00-1.12 0v1.125h-3.38V8.56a.56.56 0 00-1.12 0v1.125h-3.38V8.56a.56.56 0 00-1.12 0v1.125H10.5a1.5 1.5 0 00-1.5 1.5V24.5a1.5 1.5 0 001.5 1.5h15a1.5 1.5 0 001.5-1.5V11.185a1.5 1.5 0 00-1.5-1.5zm.37 14.815a.37.37 0 01-.37.375h-15a.378.378 0 01-.38-.375V11.185a.378.378 0 01.38-.375h2.44v1.125a.56.56 0 001.12 0V10.81h3.38v1.125a.56.56 0 001.12 0V10.81h3.38v1.125a.56.56 0 001.12 0V10.81h2.44a.37.37 0 01.37.375V24.5zm-12.93-9.751h2.25v1.687h-2.25v-1.687zm0 2.812h2.25v1.688h-2.25v-1.688zm0 2.813h2.25v1.688h-2.25v-1.688zm3.93 0h2.25v1.688h-2.25v-1.688zm0-2.813h2.25v1.688h-2.25v-1.688zm0-2.812h2.25v1.687h-2.25v-1.687zm3.94 5.625h2.25v1.688h-2.25v-1.688zm0-2.813h2.25v1.688h-2.25v-1.688zm0-2.812h2.25v1.687h-2.25v-1.687z" fill="#83888A"/><rect x=".25" y=".25" width="34.5" height="34.5" rx="2.75" stroke="#C4C4C4" stroke-width=".5"/></svg>