<svg width="129" height="23" fill="none" xmlns="http://www.w3.org/2000/svg"><g clip-path="url(#clip0_2_2)"><path d="M.496.152V23h3.04V12.536h12.032V23h3.04V.152h-3.04v9.824H3.536V.152H.496zm23.094 0V23h15.872v-2.56H26.63v-7.904h11.872v-2.56H26.63V2.712h12.736V.152H23.59zm19.562 0V23h15.136v-2.56H46.192V.152h-3.04zm23.66 13.504L75.546.152H72.09l-6.688 10.88L58.555.152H54.94l8.832 13.504V23h3.04v-9.344zM78.121.152V23h3.04V12.536h10.495v-2.56H81.161V2.712H93.13V.152H78.121zm18.374 0V23h15.136v-2.56H99.536V.152h-3.04zm23.659 13.504L128.891.152h-3.456l-6.688 10.88-6.848-10.88h-3.616l8.832 13.504V23h3.04v-9.344z" fill="#000"/></g><defs><clipPath id="clip0_2_2"><path fill="#fff" d="M0 0h129v23H0z"/></clipPath></defs></svg>