<svg width="52" height="52" fill="none" xmlns="http://www.w3.org/2000/svg"><path d="M17.035 27.765c-1.843 0-3.348-.607-4.515-1.82-1.167-1.213-1.75-2.87-1.75-4.97 0-1.377.268-2.578.805-3.605.537-1.027 1.272-1.808 2.205-2.345.957-.56 2.042-.84 3.255-.84 1.867 0 3.383.618 4.55 1.855 1.167 1.213 1.75 2.858 1.75 4.935 0 2.1-.583 3.757-1.75 4.97-1.167 1.213-2.683 1.82-4.55 1.82zM31.525 14.5h5.04L19.835 39h-5.04l16.73-24.5zm-14.49 9.94c.63 0 1.132-.28 1.505-.84.373-.56.56-1.435.56-2.625s-.187-2.065-.56-2.625c-.373-.56-.875-.84-1.505-.84-.607 0-1.108.292-1.505.875-.373.56-.56 1.423-.56 2.59 0 1.167.187 2.042.56 2.625.397.56.898.84 1.505.84zm17.29 14.875c-1.867 0-3.383-.607-4.55-1.82-1.143-1.213-1.715-2.87-1.715-4.97 0-2.077.583-3.722 1.75-4.935 1.167-1.237 2.672-1.855 4.515-1.855 1.867 0 3.383.618 4.55 1.855 1.167 1.213 1.75 2.858 1.75 4.935 0 2.1-.583 3.757-1.75 4.97-1.167 1.213-2.683 1.82-4.55 1.82zm0-3.325c.63 0 1.132-.28 1.505-.84.373-.56.56-1.435.56-2.625s-.187-2.065-.56-2.625c-.373-.56-.875-.84-1.505-.84-.63 0-1.132.28-1.505.84-.373.56-.56 1.435-.56 2.625s.187 2.065.56 2.625c.373.56.875.84 1.505.84z" fill="#fff"/><circle cx="26" cy="26" r="25.5" stroke="#fff"/></svg>