<svg width="11" height="6" viewBox="0 0 11 6" fill="none" xmlns="http://www.w3.org/2000/svg">
<path fill-rule="evenodd" clip-rule="evenodd" d="M4.9557 5.78412L0.225863 1.25809C0.154844 1.19266 0.0980035 1.11241 0.0590805 1.02259C0.0201575 0.932782 0 0.835459 0 0.737015C0 0.63857 0.0201575 0.541237 0.0590805 0.451426C0.0980035 0.361615 0.154844 0.281358 0.225863 0.215932C0.376464 0.0768556 0.571367 0 0.773135 0C0.974903 0 1.16952 0.0768556 1.32012 0.215932L5.50014 4.22088L9.68581 0.215932C9.8353 0.0769149 10.0291 1.82993e-05 10.23 1.82993e-05C10.4309 1.82993e-05 10.6247 0.0769149 10.7741 0.215932C10.8452 0.281412 10.902 0.361721 10.9409 0.451582C10.9798 0.541442 11 0.638816 11 0.737307C11 0.835799 10.9798 0.933181 10.9409 1.02304C10.902 1.1129 10.8452 1.19321 10.7741 1.25869L6.04996 5.78412C5.8984 5.92351 5.70283 6.00034 5.50014 5.99998C5.29901 6.00132 5.10451 5.92427 4.9557 5.78412Z" fill="#C7C7C7"/>
</svg>
