<svg width="26" height="16" viewBox="0 0 26 16" fill="none" xmlns="http://www.w3.org/2000/svg">
<path fill-rule="evenodd" clip-rule="evenodd" d="M25.0593 1.34671C25.1479 1.3744 25.229 1.42146 25.2971 1.4845C25.3652 1.54754 25.4189 1.62495 25.4534 1.71114C25.4878 1.79732 25.5027 1.89011 25.4968 1.98275C25.4909 2.07538 25.4642 2.16556 25.4192 2.24671C25.2992 2.47971 25.1691 2.7067 25.0491 2.9337C25.0476 3.01323 25.0268 3.0912 24.9885 3.16089C24.9502 3.23058 24.8957 3.2899 24.8293 3.33371C23.725 5.34087 22.4432 7.24513 20.9992 9.0237C20.9944 9.02522 20.9901 9.02796 20.9866 9.03163C20.9831 9.03531 20.9805 9.03981 20.9792 9.04471C22.6492 10.2277 26.6392 13.2447 24.6892 14.9447C23.6692 15.8377 20.7091 15.6877 19.5691 15.1817C18.9084 14.8425 18.2934 14.4208 17.739 13.9267C16.759 13.1367 16.4891 13.1827 15.6091 14.0267C14.4791 15.1117 13.8494 15.7987 12.1794 15.6017C10.1849 15.2539 8.32981 14.3479 6.82933 12.9887C3.4438 10.0405 1.05985 6.1113 0.00901499 1.74671C-0.00445804 1.67883 -0.00269686 1.60884 0.0134095 1.54154C0.0295159 1.47424 0.0600229 1.41121 0.102765 1.35678C0.145507 1.30236 0.199402 1.25783 0.260968 1.22623C0.322534 1.19463 0.390073 1.17671 0.45921 1.17371C0.47921 1.17371 0.479249 1.16371 0.499249 1.15871C2.07974 0.874933 3.69259 0.817351 5.28929 0.987704C5.41579 1.00343 5.53429 1.05752 5.62913 1.1427C5.67589 1.16149 5.71727 1.19175 5.74925 1.2307C6.97925 2.7127 7.51905 4.66971 8.79905 6.11071C9.41905 6.81071 9.61942 6.69471 9.67943 5.73371C9.70775 5.32129 9.71086 4.90753 9.68919 4.49471C9.62919 3.41571 9.24909 2.47071 9.08909 1.42171C9.05895 1.28436 9.08441 1.14065 9.15941 1.0217C9.17637 0.903064 9.23091 0.793134 9.31566 0.708392C9.4004 0.62365 9.5105 0.568664 9.62913 0.551699C11.1537 0.452925 12.6825 0.432235 14.2092 0.489703C14.3038 0.460465 14.4052 0.462152 14.4988 0.494525C14.5923 0.526898 14.673 0.588277 14.7292 0.669711C14.7864 0.686354 14.8381 0.718212 14.8786 0.761889C14.9192 0.805567 14.9469 0.859425 14.9592 0.917712C15.1391 1.86004 15.1998 2.82126 15.1394 3.7787C15.1294 4.2387 15.1191 4.70271 15.1091 5.16271C15.0991 5.42571 15.0993 5.6897 15.0993 5.9527C14.9993 6.4387 15.1894 6.62371 15.6594 6.51071C16.4494 6.59771 16.6591 5.9267 17.0491 5.3107C17.2791 4.9447 17.4992 4.5677 17.7092 4.1857C18.2092 3.2857 18.569 2.34271 19.029 1.42771C19.0619 1.35456 19.1135 1.29131 19.1784 1.24428C19.2434 1.19725 19.3194 1.16808 19.3992 1.1597C19.4453 1.13367 19.4963 1.11766 19.5491 1.1127C21.3886 0.975475 23.2381 1.05402 25.0593 1.34671Z" fill="#5476A4"/>
</svg>
