<svg width="33" height="33" viewBox="0 0 33 33" fill="none" xmlns="http://www.w3.org/2000/svg">
<path d="M25.1433 8.72586C25.1433 3.95164 21.2737 0.0820312 16.4988 0.0820312C11.7239 0.0820312 7.85498 3.95164 7.85498 8.72586C7.85498 15.566 16.4988 25.6878 16.4988 25.6878C16.4988 25.6878 25.1433 15.5308 25.1433 8.72586ZM12.2359 8.20973C12.2359 5.8547 14.1452 3.94612 16.4995 3.94612C18.8538 3.94612 20.7631 5.8547 20.7631 8.20973C20.7631 10.5647 18.8538 12.4733 16.4995 12.4733C14.1452 12.4733 12.2359 10.5647 12.2359 8.20973Z" fill="#37373F"/>
<path d="M16.4991 10.3061C17.6568 10.3061 18.5954 9.36753 18.5954 8.20979C18.5954 7.05206 17.6568 6.11353 16.4991 6.11353C15.3414 6.11353 14.4028 7.05206 14.4028 8.20979C14.4028 9.36753 15.3414 10.3061 16.4991 10.3061Z" fill="#C94042"/>
<path d="M21.3863 22.6807C20.6818 23.6991 20.0208 24.5858 19.4702 25.2979C24.9323 25.6263 28.5121 26.8056 29.8439 27.6826C28.2837 28.7114 23.6482 30.1577 16.5003 30.1577C9.35316 30.1577 4.71695 28.7107 3.15682 27.6826C4.48855 26.8056 8.06559 25.627 13.5222 25.2986C12.9702 24.5865 12.3085 23.7005 11.6033 22.682C4.88186 23.3438 0 25.3324 0 27.6819C0 30.5731 7.388 32.9177 16.5003 32.9177C25.6134 32.9177 33 30.5744 33 27.6819C33.0014 25.331 28.114 23.3417 21.3863 22.6807Z" fill="#37373F"/>
</svg>
