<svg width="35" height="35" viewBox="0 0 35 35" fill="none" xmlns="http://www.w3.org/2000/svg">
<path fill-rule="evenodd" clip-rule="evenodd" d="M25.5 9.68518H23.0601V8.56006C23.0601 8.41152 23.001 8.26907 22.896 8.16403C22.791 8.059 22.6485 8 22.5 8C22.3515 8 22.209 8.059 22.104 8.16403C21.999 8.26907 21.9399 8.41152 21.9399 8.56006V9.68518H18.5601V8.56006C18.5601 8.41152 18.501 8.26907 18.396 8.16403C18.291 8.059 18.1485 8 18 8C17.8515 8 17.709 8.059 17.604 8.16403C17.499 8.26907 17.4399 8.41152 17.4399 8.56006V9.68518H14.0601V8.56006C14.0601 8.41152 14.001 8.26907 13.896 8.16403C13.791 8.059 13.6485 8 13.5 8C13.3515 8 13.209 8.059 13.104 8.16403C12.999 8.26907 12.9399 8.41152 12.9399 8.56006V9.68518H10.5C10.1022 9.68518 9.72076 9.84324 9.43945 10.1246C9.15815 10.4059 9 10.7875 9 11.1854V24.4998C9 24.8977 9.15815 25.2793 9.43945 25.5606C9.72076 25.8419 10.1022 26 10.5 26H25.5C25.8978 26 26.2792 25.8419 26.5605 25.5606C26.8419 25.2793 27 24.8977 27 24.4998V11.1854C27 10.7875 26.8419 10.4059 26.5605 10.1246C26.2792 9.84324 25.8978 9.68518 25.5 9.68518ZM25.8701 24.4998C25.8709 24.5489 25.862 24.5976 25.8438 24.6431C25.8255 24.6887 25.7981 24.7301 25.7637 24.765C25.7292 24.8 25.6883 24.8276 25.6431 24.8465C25.5978 24.8654 25.5491 24.875 25.5 24.8749H10.5C10.3999 24.8754 10.3037 24.8362 10.2324 24.7659C10.1612 24.6956 10.1209 24.5999 10.1201 24.4998V11.1854C10.1209 11.0853 10.1612 10.9896 10.2324 10.9193C10.3037 10.849 10.3999 10.8098 10.5 10.8103H12.9399V11.9354C12.9399 12.084 12.999 12.2264 13.104 12.3315C13.209 12.4365 13.3515 12.4955 13.5 12.4955C13.6485 12.4955 13.791 12.4365 13.896 12.3315C14.001 12.2264 14.0601 12.084 14.0601 11.9354V10.8103H17.4399V11.9354C17.4399 12.084 17.499 12.2264 17.604 12.3315C17.709 12.4365 17.8515 12.4955 18 12.4955C18.1485 12.4955 18.291 12.4365 18.396 12.3315C18.501 12.2264 18.5601 12.084 18.5601 11.9354V10.8103H21.9399V11.9354C21.9399 12.084 21.999 12.2264 22.104 12.3315C22.209 12.4365 22.3515 12.4955 22.5 12.4955C22.6485 12.4955 22.791 12.4365 22.896 12.3315C23.001 12.2264 23.0601 12.084 23.0601 11.9354V10.8103H25.5C25.5491 10.8102 25.5978 10.8198 25.6431 10.8387C25.6883 10.8575 25.7292 10.8852 25.7637 10.9202C25.7981 10.9551 25.8255 10.9965 25.8438 11.0421C25.862 11.0876 25.8709 11.1363 25.8701 11.1854V24.4998ZM12.9399 14.7488H15.1899V16.4359H12.9399V14.7488ZM12.9399 17.5611H15.1899V19.2493H12.9399V17.5611ZM12.9399 20.3744H15.1899V22.0616H12.9399V20.3744ZM16.8701 20.3744H19.1201V22.0616H16.8701V20.3744ZM16.8701 17.5611H19.1201V19.2493H16.8701V17.5611ZM16.8701 14.7488H19.1201V16.4359H16.8701V14.7488ZM20.8101 20.3744H23.0601V22.0616H20.8101V20.3744ZM20.8101 17.5611H23.0601V19.2493H20.8101V17.5611ZM20.8101 14.7488H23.0601V16.4359H20.8101V14.7488Z" fill="#83888A"/>
<rect x="0.25" y="0.25" width="34.5" height="34.5" rx="2.75" stroke="#C4C4C4" stroke-width="0.5"/>
</svg>
