<svg width="40" height="37" viewBox="0 0 40 37" fill="none" xmlns="http://www.w3.org/2000/svg">
<rect width="40" height="37" fill="white"/>
<path d="M32.2623 28.237C34.7813 25.5264 36.1685 22.0684 36.1685 18.4999C36.1685 10.2524 28.9146 3.54248 19.9983 3.54248C11.0821 3.54248 3.82812 10.2524 3.82812 18.4999C3.82812 26.7475 11.0821 33.4574 19.9983 33.4574C23.8561 33.4574 27.5945 32.1742 30.5249 29.8441C30.789 29.6342 31.1852 29.6594 31.4164 29.8985C31.7292 29.6302 32.0311 29.351 32.3212 29.0616C32.0627 28.8478 32.0353 28.4813 32.2623 28.237ZM19.36 5.31376C19.36 4.98768 19.6458 4.72333 19.9983 4.72333C20.3508 4.72333 20.6366 4.98768 20.6366 5.31376V7.67546C20.6366 8.00153 20.3508 8.26588 19.9983 8.26588C19.6458 8.26588 19.36 8.00153 19.36 7.67546V5.31376ZM8.29621 19.0904H5.74302C5.39051 19.0904 5.10472 18.826 5.10472 18.4999C5.10472 18.1739 5.39051 17.9095 5.74302 17.9095H8.29621C8.64872 17.9095 8.93451 18.1739 8.93451 18.4999C8.93451 18.826 8.64872 19.0904 8.29621 19.0904ZM20.6366 31.6861C20.6366 32.0122 20.3508 32.2765 19.9983 32.2765C19.6458 32.2765 19.36 32.0122 19.36 31.6861V29.3244C19.36 28.9983 19.6458 28.734 19.9983 28.734C20.3508 28.734 20.6366 28.9983 20.6366 29.3244V31.6861ZM30.5297 11.2634L22.3034 18.8728C22.1116 19.8894 21.1514 20.6648 19.9983 20.6648C19.5845 20.6648 19.1958 20.5646 18.8582 20.3896L12.1789 26.5679C12.0543 26.6831 11.8909 26.7408 11.7276 26.7408C11.5643 26.7408 11.4009 26.6832 11.2763 26.5679C11.027 26.3373 11.027 25.9635 11.2763 25.733L17.9555 19.5547C17.8292 19.3461 17.7394 19.1165 17.6934 18.8728L12.175 13.7683C11.9257 13.5378 11.9257 13.1639 12.175 12.9334L13.9804 11.2634C14.2297 11.0329 14.6338 11.0329 14.883 11.2634L20.4014 16.3679C20.4285 16.3723 20.4554 16.3767 20.4822 16.382L21.352 15.5775C21.1029 15.3469 21.1029 14.9732 21.3522 14.7427L27.8217 8.75846C27.9413 8.64777 28.1037 8.5855 28.273 8.5855C28.4423 8.5855 28.6046 8.64769 28.7243 8.75846L30.5297 10.4284C30.779 10.6589 30.779 11.0328 30.5297 11.2634ZM31.7005 19.0904C31.348 19.0904 31.0622 18.826 31.0622 18.4999C31.0622 18.1739 31.348 17.9095 31.7005 17.9095H34.2537C34.6062 17.9095 34.892 18.1739 34.892 18.4999C34.892 18.826 34.6062 19.0904 34.2537 19.0904H31.7005Z" fill="#C7C7C7"/>
<path d="M32.2623 28.237C34.7813 25.5264 36.1685 22.0684 36.1685 18.4999C36.1685 10.2524 28.9146 3.54248 19.9983 3.54248C11.0821 3.54248 3.82812 10.2524 3.82812 18.4999C3.82812 26.7475 11.0821 33.4574 19.9983 33.4574C23.8561 33.4574 27.5945 32.1742 30.5249 29.8441C30.789 29.6342 31.1852 29.6594 31.4164 29.8985C31.7292 29.6302 32.0311 29.351 32.3212 29.0616C32.0627 28.8478 32.0353 28.4813 32.2623 28.237ZM19.36 5.31376C19.36 4.98768 19.6458 4.72333 19.9983 4.72333C20.3508 4.72333 20.6366 4.98768 20.6366 5.31376V7.67546C20.6366 8.00153 20.3508 8.26588 19.9983 8.26588C19.6458 8.26588 19.36 8.00153 19.36 7.67546V5.31376ZM8.29621 19.0904H5.74302C5.39051 19.0904 5.10472 18.826 5.10472 18.4999C5.10472 18.1739 5.39051 17.9095 5.74302 17.9095H8.29621C8.64872 17.9095 8.93451 18.1739 8.93451 18.4999C8.93451 18.826 8.64872 19.0904 8.29621 19.0904ZM20.6366 31.6861C20.6366 32.0122 20.3508 32.2765 19.9983 32.2765C19.6458 32.2765 19.36 32.0122 19.36 31.6861V29.3244C19.36 28.9983 19.6458 28.734 19.9983 28.734C20.3508 28.734 20.6366 28.9983 20.6366 29.3244V31.6861ZM30.5297 11.2634L22.3034 18.8728C22.1116 19.8894 21.1514 20.6648 19.9983 20.6648C19.5845 20.6648 19.1958 20.5646 18.8582 20.3896L12.1789 26.5679C12.0543 26.6831 11.8909 26.7408 11.7276 26.7408C11.5643 26.7408 11.4009 26.6832 11.2763 26.5679C11.027 26.3373 11.027 25.9635 11.2763 25.733L17.9555 19.5547C17.8292 19.3461 17.7394 19.1165 17.6934 18.8728L12.175 13.7683C11.9257 13.5378 11.9257 13.1639 12.175 12.9334L13.9804 11.2634C14.2297 11.0329 14.6338 11.0329 14.883 11.2634L20.4014 16.3679C20.4285 16.3723 20.4554 16.3767 20.4822 16.382L21.352 15.5775C21.1029 15.3469 21.1029 14.9732 21.3522 14.7427L27.8217 8.75846C27.9413 8.64777 28.1037 8.5855 28.273 8.5855C28.4423 8.5855 28.6046 8.64769 28.7243 8.75846L30.5297 10.4284C30.779 10.6589 30.779 11.0328 30.5297 11.2634ZM31.7005 19.0904C31.348 19.0904 31.0622 18.826 31.0622 18.4999C31.0622 18.1739 31.348 17.9095 31.7005 17.9095H34.2537C34.6062 17.9095 34.892 18.1739 34.892 18.4999C34.892 18.826 34.6062 19.0904 34.2537 19.0904H31.7005Z" fill="url(#paint0_linear_0_74)"/>
<path d="M17.9567 17.4455C18.1683 17.0961 18.4816 16.8063 18.8594 16.6105L14.433 12.5161L13.5303 13.3511L17.9567 17.4455Z" fill="#C7C7C7"/>
<path d="M17.9567 17.4455C18.1683 17.0961 18.4816 16.8063 18.8594 16.6105L14.433 12.5161L13.5303 13.3511L17.9567 17.4455Z" fill="url(#paint1_linear_0_74)"/>
<path d="M22.0423 17.4454L29.1768 10.846L28.274 10.011L22.256 15.5778C22.0067 15.8083 21.6025 15.8083 21.3534 15.5778C21.3531 15.5775 20.4834 16.382 20.4834 16.382C21.1528 16.5127 21.7173 16.9089 22.0423 17.4454Z" fill="#C7C7C7"/>
<path d="M22.0423 17.4454L29.1768 10.846L28.274 10.011L22.256 15.5778C22.0067 15.8083 21.6025 15.8083 21.3534 15.5778C21.3531 15.5775 20.4834 16.382 20.4834 16.382C21.1528 16.5127 21.7173 16.9089 22.0423 17.4454Z" fill="url(#paint2_linear_0_74)"/>
<path d="M20.0027 1.18115C9.67853 1.18115 1.2793 8.95052 1.2793 18.5003C1.2793 28.0502 9.67853 35.8195 20.0027 35.8195C30.3269 35.8195 38.7261 28.0502 38.7261 18.5003C38.7261 8.95052 30.3269 1.18115 20.0027 1.18115ZM33.2348 29.0071C33.005 29.2544 32.6021 29.2826 32.3346 29.0699C32.3314 29.0674 32.3287 29.0645 32.3255 29.0619C32.0354 29.3513 31.7336 29.6305 31.4207 29.8988C31.4235 29.9017 31.4265 29.9043 31.4293 29.9072C31.6591 30.1545 31.6287 30.5273 31.3614 30.7399C28.1995 33.2541 24.1657 34.6386 20.0027 34.6386C10.3824 34.6386 2.55589 27.399 2.55589 18.5003C2.55589 9.60164 10.3824 2.362 20.0027 2.362C29.623 2.362 37.4495 9.60164 37.4495 18.5003C37.4495 22.3511 35.9527 26.0824 33.2348 29.0071Z" fill="#C7C7C7"/>
<path d="M20.0027 1.18115C9.67853 1.18115 1.2793 8.95052 1.2793 18.5003C1.2793 28.0502 9.67853 35.8195 20.0027 35.8195C30.3269 35.8195 38.7261 28.0502 38.7261 18.5003C38.7261 8.95052 30.3269 1.18115 20.0027 1.18115ZM33.2348 29.0071C33.005 29.2544 32.6021 29.2826 32.3346 29.0699C32.3314 29.0674 32.3287 29.0645 32.3255 29.0619C32.0354 29.3513 31.7336 29.6305 31.4207 29.8988C31.4235 29.9017 31.4265 29.9043 31.4293 29.9072C31.6591 30.1545 31.6287 30.5273 31.3614 30.7399C28.1995 33.2541 24.1657 34.6386 20.0027 34.6386C10.3824 34.6386 2.55589 27.399 2.55589 18.5003C2.55589 9.60164 10.3824 2.362 20.0027 2.362C29.623 2.362 37.4495 9.60164 37.4495 18.5003C37.4495 22.3511 35.9527 26.0824 33.2348 29.0071Z" fill="url(#paint3_linear_0_74)"/>
<path d="M34.1421 5.41853C30.3647 1.92431 25.3422 0 20 0C14.6578 0 9.63532 1.92431 5.85787 5.41853C2.08034 8.91275 0 13.5585 0 18.5C0 23.4415 2.08034 28.0873 5.85787 31.5815C9.63532 35.0757 14.6578 37 20 37C25.3422 37 30.3647 35.0757 34.1421 31.5815C37.9197 28.0873 40 23.4415 40 18.5C40 13.5585 37.9197 8.91275 34.1421 5.41853ZM20 35.8191C9.67583 35.8191 1.2766 28.0499 1.2766 18.5C1.2766 8.95022 9.67583 1.18085 20 1.18085C30.3242 1.18085 38.7234 8.95022 38.7234 18.5C38.7234 28.0499 30.3242 35.8191 20 35.8191Z" fill="#C7C7C7"/>
<path d="M34.1421 5.41853C30.3647 1.92431 25.3422 0 20 0C14.6578 0 9.63532 1.92431 5.85787 5.41853C2.08034 8.91275 0 13.5585 0 18.5C0 23.4415 2.08034 28.0873 5.85787 31.5815C9.63532 35.0757 14.6578 37 20 37C25.3422 37 30.3647 35.0757 34.1421 31.5815C37.9197 28.0873 40 23.4415 40 18.5C40 13.5585 37.9197 8.91275 34.1421 5.41853ZM20 35.8191C9.67583 35.8191 1.2766 28.0499 1.2766 18.5C1.2766 8.95022 9.67583 1.18085 20 1.18085C30.3242 1.18085 38.7234 8.95022 38.7234 18.5C38.7234 28.0499 30.3242 35.8191 20 35.8191Z" fill="url(#paint4_linear_0_74)"/>
<path d="M21.0632 18.5002C21.0632 17.9575 20.586 17.5161 19.9994 17.5161C19.4127 17.5161 18.9355 17.9575 18.9355 18.5002C18.9355 19.0428 19.4127 19.4842 19.9994 19.4842C20.586 19.4842 21.0632 19.0428 21.0632 18.5002Z" fill="#C7C7C7"/>
<path d="M21.0632 18.5002C21.0632 17.9575 20.586 17.5161 19.9994 17.5161C19.4127 17.5161 18.9355 17.9575 18.9355 18.5002C18.9355 19.0428 19.4127 19.4842 19.9994 19.4842C20.586 19.4842 21.0632 19.0428 21.0632 18.5002Z" fill="url(#paint5_linear_0_74)"/>
<path d="M34.8942 18.4998C34.8942 18.1738 34.6085 17.9094 34.2559 17.9094H31.7028C31.3502 17.9094 31.0645 18.1738 31.0645 18.4998C31.0645 18.8259 31.3502 19.0903 31.7028 19.0903H34.2559C34.6085 19.0903 34.8942 18.8259 34.8942 18.4998Z" fill="#C7C7C7"/>
<path d="M34.8942 18.4998C34.8942 18.1738 34.6085 17.9094 34.2559 17.9094H31.7028C31.3502 17.9094 31.0645 18.1738 31.0645 18.4998C31.0645 18.8259 31.3502 19.0903 31.7028 19.0903H34.2559C34.6085 19.0903 34.8942 18.8259 34.8942 18.4998Z" fill="url(#paint6_linear_0_74)"/>
<path d="M20.0035 28.7339C19.651 28.7339 19.3652 28.9982 19.3652 29.3243V31.686C19.3652 32.0121 19.651 32.2764 20.0035 32.2764C20.356 32.2764 20.6418 32.0121 20.6418 31.686V29.3243C20.6418 28.9982 20.356 28.7339 20.0035 28.7339Z" fill="#C7C7C7"/>
<path d="M20.0035 28.7339C19.651 28.7339 19.3652 28.9982 19.3652 29.3243V31.686C19.3652 32.0121 19.651 32.2764 20.0035 32.2764C20.356 32.2764 20.6418 32.0121 20.6418 31.686V29.3243C20.6418 28.9982 20.356 28.7339 20.0035 28.7339Z" fill="url(#paint7_linear_0_74)"/>
<path d="M8.29891 17.9094H5.74572C5.39321 17.9094 5.10742 18.1738 5.10742 18.4998C5.10742 18.8259 5.39321 19.0903 5.74572 19.0903H8.29891C8.65142 19.0903 8.93721 18.8259 8.93721 18.4998C8.93721 18.1738 8.65142 17.9094 8.29891 17.9094Z" fill="#C7C7C7"/>
<path d="M8.29891 17.9094H5.74572C5.39321 17.9094 5.10742 18.1738 5.10742 18.4998C5.10742 18.8259 5.39321 19.0903 5.74572 19.0903H8.29891C8.65142 19.0903 8.93721 18.8259 8.93721 18.4998C8.93721 18.1738 8.65142 17.9094 8.29891 17.9094Z" fill="url(#paint8_linear_0_74)"/>
<path d="M28.7287 8.7584C28.6091 8.64772 28.4467 8.58545 28.2774 8.58545C28.1081 8.58545 27.9457 8.64764 27.8261 8.7584L21.3566 14.7426C21.1074 14.9731 21.1073 15.3468 21.3564 15.5774C21.6058 15.8082 22.01 15.8082 22.2593 15.5777L28.2773 10.0109L29.18 10.8459L22.0456 17.4453C21.7205 16.9088 21.156 16.5126 20.4866 16.3818C20.4599 16.3766 20.4328 16.3722 20.4058 16.3678L14.8874 11.2633C14.6382 11.0327 14.234 11.0327 13.9848 11.2633L12.1794 12.9333C11.9302 13.1638 11.9302 13.5377 12.1794 13.7682L17.6978 18.8727C17.7438 19.1163 17.8336 19.346 17.9599 19.5545L11.2807 25.7328C11.0314 25.9634 11.0314 26.3373 11.2807 26.5678C11.4053 26.683 11.5687 26.7407 11.732 26.7407C11.8953 26.7407 12.0587 26.6831 12.1833 26.5678L18.8626 20.3895C19.2002 20.5645 19.589 20.6647 20.0028 20.6647C21.1558 20.6647 22.116 19.8893 22.3077 18.8727L30.5341 11.2633C30.7834 11.0327 30.7834 10.6589 30.5341 10.4284L28.7287 8.7584ZM18.8626 16.6103C18.4848 16.8061 18.1715 17.0958 17.9599 17.4453L13.5335 13.3509L14.4362 12.5159L18.8626 16.6103ZM18.9389 18.5C18.9389 17.9573 19.4161 17.5159 20.0028 17.5159C20.5894 17.5159 21.0666 17.9573 21.0666 18.5C21.0666 19.0426 20.5894 19.484 20.0028 19.484C19.4161 19.484 18.9389 19.0426 18.9389 18.5Z" fill="#C7C7C7"/>
<path d="M28.7287 8.7584C28.6091 8.64772 28.4467 8.58545 28.2774 8.58545C28.1081 8.58545 27.9457 8.64764 27.8261 8.7584L21.3566 14.7426C21.1074 14.9731 21.1073 15.3468 21.3564 15.5774C21.6058 15.8082 22.01 15.8082 22.2593 15.5777L28.2773 10.0109L29.18 10.8459L22.0456 17.4453C21.7205 16.9088 21.156 16.5126 20.4866 16.3818C20.4599 16.3766 20.4328 16.3722 20.4058 16.3678L14.8874 11.2633C14.6382 11.0327 14.234 11.0327 13.9848 11.2633L12.1794 12.9333C11.9302 13.1638 11.9302 13.5377 12.1794 13.7682L17.6978 18.8727C17.7438 19.1163 17.8336 19.346 17.9599 19.5545L11.2807 25.7328C11.0314 25.9634 11.0314 26.3373 11.2807 26.5678C11.4053 26.683 11.5687 26.7407 11.732 26.7407C11.8953 26.7407 12.0587 26.6831 12.1833 26.5678L18.8626 20.3895C19.2002 20.5645 19.589 20.6647 20.0028 20.6647C21.1558 20.6647 22.116 19.8893 22.3077 18.8727L30.5341 11.2633C30.7834 11.0327 30.7834 10.6589 30.5341 10.4284L28.7287 8.7584ZM18.8626 16.6103C18.4848 16.8061 18.1715 17.0958 17.9599 17.4453L13.5335 13.3509L14.4362 12.5159L18.8626 16.6103ZM18.9389 18.5C18.9389 17.9573 19.4161 17.5159 20.0028 17.5159C20.5894 17.5159 21.0666 17.9573 21.0666 18.5C21.0666 19.0426 20.5894 19.484 20.0028 19.484C19.4161 19.484 18.9389 19.0426 18.9389 18.5Z" fill="url(#paint9_linear_0_74)"/>
<path d="M20.0005 2.36157C10.3803 2.36157 2.55371 9.60121 2.55371 18.4999C2.55371 27.3986 10.3803 34.6382 20.0005 34.6382C24.1635 34.6382 28.1974 33.2537 31.3592 30.7395C31.6266 30.527 31.657 30.1542 31.4272 29.9069C31.4244 29.9039 31.4213 29.9014 31.4185 29.8985C31.1873 29.6594 30.7912 29.6341 30.527 29.8441C27.5967 32.1741 23.8583 33.4573 20.0005 33.4573C11.0843 33.4573 3.83031 26.7474 3.83031 18.4999C3.83031 10.2523 11.0843 3.54242 20.0005 3.54242C28.9168 3.54242 36.1707 10.2523 36.1707 18.4999C36.1707 22.0683 34.7835 25.5263 32.2645 28.2369C32.0375 28.4812 32.0649 28.8477 32.3233 29.0616C32.3265 29.0642 32.3292 29.067 32.3324 29.0696C32.5999 29.2821 33.0028 29.254 33.2326 29.0068C35.9506 26.082 37.4473 22.3506 37.4473 18.4999C37.4473 9.60121 29.6208 2.36157 20.0005 2.36157Z" fill="#C7C7C7"/>
<path d="M20.0005 2.36157C10.3803 2.36157 2.55371 9.60121 2.55371 18.4999C2.55371 27.3986 10.3803 34.6382 20.0005 34.6382C24.1635 34.6382 28.1974 33.2537 31.3592 30.7395C31.6266 30.527 31.657 30.1542 31.4272 29.9069C31.4244 29.9039 31.4213 29.9014 31.4185 29.8985C31.1873 29.6594 30.7912 29.6341 30.527 29.8441C27.5967 32.1741 23.8583 33.4573 20.0005 33.4573C11.0843 33.4573 3.83031 26.7474 3.83031 18.4999C3.83031 10.2523 11.0843 3.54242 20.0005 3.54242C28.9168 3.54242 36.1707 10.2523 36.1707 18.4999C36.1707 22.0683 34.7835 25.5263 32.2645 28.2369C32.0375 28.4812 32.0649 28.8477 32.3233 29.0616C32.3265 29.0642 32.3292 29.067 32.3324 29.0696C32.5999 29.2821 33.0028 29.254 33.2326 29.0068C35.9506 26.082 37.4473 22.3506 37.4473 18.4999C37.4473 9.60121 29.6208 2.36157 20.0005 2.36157Z" fill="url(#paint10_linear_0_74)"/>
<defs>
<linearGradient id="paint0_linear_0_74" x1="19.9983" y1="3.54248" x2="19.9983" y2="33.4574" gradientUnits="userSpaceOnUse">
<stop stop-color="white"/>
<stop offset="1" stop-color="white" stop-opacity="0"/>
</linearGradient>
<linearGradient id="paint1_linear_0_74" x1="16.1948" y1="12.5161" x2="16.1948" y2="17.4455" gradientUnits="userSpaceOnUse">
<stop stop-color="white"/>
<stop offset="1" stop-color="white" stop-opacity="0"/>
</linearGradient>
<linearGradient id="paint2_linear_0_74" x1="24.8301" y1="10.011" x2="24.8301" y2="17.4454" gradientUnits="userSpaceOnUse">
<stop stop-color="white"/>
<stop offset="1" stop-color="white" stop-opacity="0"/>
</linearGradient>
<linearGradient id="paint3_linear_0_74" x1="20.0027" y1="1.18115" x2="20.0027" y2="35.8195" gradientUnits="userSpaceOnUse">
<stop stop-color="white"/>
<stop offset="1" stop-color="white" stop-opacity="0"/>
</linearGradient>
<linearGradient id="paint4_linear_0_74" x1="20" y1="0" x2="20" y2="37" gradientUnits="userSpaceOnUse">
<stop stop-color="white"/>
<stop offset="1" stop-color="white" stop-opacity="0"/>
</linearGradient>
<linearGradient id="paint5_linear_0_74" x1="19.9994" y1="17.5161" x2="19.9994" y2="19.4842" gradientUnits="userSpaceOnUse">
<stop stop-color="white"/>
<stop offset="1" stop-color="white" stop-opacity="0"/>
</linearGradient>
<linearGradient id="paint6_linear_0_74" x1="32.9794" y1="17.9094" x2="32.9794" y2="19.0903" gradientUnits="userSpaceOnUse">
<stop stop-color="white"/>
<stop offset="1" stop-color="white" stop-opacity="0"/>
</linearGradient>
<linearGradient id="paint7_linear_0_74" x1="20.0035" y1="28.7339" x2="20.0035" y2="32.2764" gradientUnits="userSpaceOnUse">
<stop stop-color="white"/>
<stop offset="1" stop-color="white" stop-opacity="0"/>
</linearGradient>
<linearGradient id="paint8_linear_0_74" x1="7.02232" y1="17.9094" x2="7.02232" y2="19.0903" gradientUnits="userSpaceOnUse">
<stop stop-color="white"/>
<stop offset="1" stop-color="white" stop-opacity="0"/>
</linearGradient>
<linearGradient id="paint9_linear_0_74" x1="20.9074" y1="8.58545" x2="20.9074" y2="26.7407" gradientUnits="userSpaceOnUse">
<stop stop-color="white"/>
<stop offset="1" stop-color="white" stop-opacity="0"/>
</linearGradient>
<linearGradient id="paint10_linear_0_74" x1="20.0005" y1="2.36157" x2="20.0005" y2="34.6382" gradientUnits="userSpaceOnUse">
<stop stop-color="white"/>
<stop offset="1" stop-color="white" stop-opacity="0"/>
</linearGradient>
</defs>
</svg>
