<svg width="21" height="21" viewBox="0 0 21 21" fill="none" xmlns="http://www.w3.org/2000/svg">
<path fill-rule="evenodd" clip-rule="evenodd" d="M19.7593 0.252912C19.6844 0.177989 19.5958 0.118568 19.498 0.0780193C19.4002 0.0374703 19.2953 0.0166016 19.1895 0.0166016C19.0836 0.0166016 18.9787 0.0374703 18.8809 0.0780193C18.7831 0.118568 18.6945 0.177989 18.6196 0.252912L0.239746 18.652C0.163854 18.7265 0.103165 18.8154 0.0620117 18.9135C0.0208584 19.0116 0 19.117 0 19.2234C0 19.3298 0.0208584 19.4351 0.0620117 19.5333C0.103165 19.6314 0.163854 19.7203 0.239746 19.7948C0.313773 19.8709 0.402023 19.9311 0.5 19.9719C0.597977 20.0127 0.703467 20.0331 0.80957 20.032C1.02325 20.0306 1.2277 19.9454 1.37939 19.7948L19.7593 1.39679C19.8353 1.32224 19.8958 1.23326 19.937 1.13505C19.9783 1.03685 19.9995 0.93138 19.9995 0.82485C19.9995 0.718321 19.9783 0.612871 19.937 0.514662C19.8958 0.416453 19.8353 0.327457 19.7593 0.252912ZM19.7593 18.652L1.37939 0.252912C1.30434 0.178001 1.21517 0.118623 1.11719 0.0781567C1.0192 0.0376908 0.914592 0.0169356 0.808594 0.0170749C0.702596 0.0172143 0.597388 0.0382426 0.499512 0.078966C0.401636 0.119689 0.312646 0.179316 0.237793 0.254423C0.162939 0.329531 0.103912 0.418651 0.0634766 0.516708C0.0230415 0.614766 0.00230209 0.71984 0.00244141 0.825919C0.00258072 0.931998 0.0232724 1.03701 0.0639648 1.13496C0.104657 1.23291 0.164696 1.32188 0.239746 1.39679L18.6196 19.7948C18.694 19.8724 18.7832 19.9344 18.8818 19.9771C18.9805 20.0198 19.0864 20.0423 19.1938 20.0434C19.3013 20.0444 19.4079 20.024 19.5073 19.9833C19.6068 19.9426 19.697 19.8825 19.7729 19.8064C19.8489 19.7303 19.9087 19.6398 19.9492 19.5401C19.9897 19.4405 20.0101 19.3338 20.0088 19.2263C20.0075 19.1188 19.9847 19.0126 19.9419 18.9139C19.8991 18.8153 19.837 18.7263 19.7593 18.652Z" fill="#B3B3B3"/>
</svg>
