<svg width="27" height="27" viewBox="0 0 27 27" fill="none" xmlns="http://www.w3.org/2000/svg">
<path fill-rule="evenodd" clip-rule="evenodd" d="M19.6714 7.47139H17.7892V6.60343C17.7892 6.48885 17.7437 6.37895 17.6626 6.29793C17.5816 6.2169 17.4717 6.17139 17.3572 6.17139C17.2426 6.17139 17.1327 6.2169 17.0517 6.29793C16.9707 6.37895 16.9251 6.48885 16.9251 6.60343V7.47139H14.3178V6.60343C14.3178 6.48885 14.2722 6.37895 14.1912 6.29793C14.1102 6.2169 14.0003 6.17139 13.8857 6.17139C13.7712 6.17139 13.6613 6.2169 13.5802 6.29793C13.4992 6.37895 13.4537 6.48885 13.4537 6.60343V7.47139H10.8463V6.60343C10.8463 6.48885 10.8008 6.37895 10.7198 6.29793C10.6388 6.2169 10.5289 6.17139 10.4143 6.17139C10.2997 6.17139 10.1898 6.2169 10.1088 6.29793C10.0278 6.37895 9.98225 6.48885 9.98225 6.60343V7.47139H8.10001C7.79312 7.47139 7.49888 7.59332 7.28188 7.81035C7.06487 8.02738 6.94287 8.32173 6.94287 8.62866V18.8998C6.94287 19.2068 7.06487 19.5011 7.28188 19.7181C7.49888 19.9352 7.79312 20.0571 8.10001 20.0571H19.6714C19.9783 20.0571 20.2726 19.9352 20.4896 19.7181C20.7066 19.5011 20.8286 19.2068 20.8286 18.8998V8.62866C20.8286 8.32173 20.7066 8.02738 20.4896 7.81035C20.2726 7.59332 19.9783 7.47139 19.6714 7.47139ZM19.957 18.8998C19.9576 18.9377 19.9507 18.9752 19.9366 19.0104C19.9225 19.0455 19.9014 19.0775 19.8748 19.1044C19.8483 19.1313 19.8167 19.1527 19.7818 19.1673C19.7469 19.1818 19.7093 19.1893 19.6714 19.1891H8.10001C8.02281 19.1896 7.94855 19.1593 7.8936 19.1051C7.83864 19.0509 7.80757 18.977 7.80696 18.8998V8.62866C7.80757 8.55145 7.83864 8.47763 7.8936 8.42339C7.94855 8.36916 8.02281 8.33893 8.10001 8.33934H9.98225V9.20729C9.98225 9.32188 10.0278 9.43177 10.1088 9.5128C10.1898 9.59382 10.2997 9.63934 10.4143 9.63934C10.5289 9.63934 10.6388 9.59382 10.7198 9.5128C10.8008 9.43177 10.8463 9.32188 10.8463 9.20729V8.33934H13.4537V9.20729C13.4537 9.32188 13.4992 9.43177 13.5802 9.5128C13.6613 9.59382 13.7712 9.63934 13.8857 9.63934C14.0003 9.63934 14.1102 9.59382 14.1912 9.5128C14.2722 9.43177 14.3178 9.32188 14.3178 9.20729V8.33934H16.9251V9.20729C16.9251 9.32188 16.9707 9.43177 17.0517 9.5128C17.1327 9.59382 17.2426 9.63934 17.3572 9.63934C17.4717 9.63934 17.5816 9.59382 17.6626 9.5128C17.7437 9.43177 17.7892 9.32188 17.7892 9.20729V8.33934H19.6714C19.7093 8.33923 19.7469 8.34667 19.7818 8.36122C19.8167 8.37577 19.8483 8.39714 19.8748 8.42408C19.9014 8.45102 19.9225 8.48299 19.9366 8.51812C19.9507 8.55324 19.9576 8.59082 19.957 8.62866V18.8998ZM9.98225 11.3776H11.718V12.6791H9.98225V11.3776ZM9.98225 13.5471H11.718V14.8494H9.98225V13.5471ZM9.98225 15.7173H11.718V17.0189H9.98225V15.7173ZM13.0141 15.7173H14.7498V17.0189H13.0141V15.7173ZM13.0141 13.5471H14.7498V14.8494H13.0141V13.5471ZM13.0141 11.3776H14.7498V12.6791H13.0141V11.3776ZM16.0535 15.7173H17.7892V17.0189H16.0535V15.7173ZM16.0535 13.5471H17.7892V14.8494H16.0535V13.5471ZM16.0535 11.3776H17.7892V12.6791H16.0535V11.3776Z" fill="#FC9B09"/>
<rect x="0.25" y="0.25" width="26.5" height="26.5" rx="2.75" stroke="#C4C4C4" stroke-width="0.5"/>
</svg>
