<svg width="129" height="23" viewBox="0 0 129 23" fill="none" xmlns="http://www.w3.org/2000/svg">
<g clip-path="url(#clip0_2_4)">
<path d="M0.496094 0.151978V23H3.53609V12.536H15.5681V23H18.6081V0.151978H15.5681V9.97598H3.53609V0.151978H0.496094ZM23.5899 0.151978V23H39.4619V20.44H26.6299V12.536H38.5019V9.97598H26.6299V2.71198H39.3659V0.151978H23.5899ZM43.1524 0.151978V23H58.2883V20.44H46.1924V0.151978H43.1524ZM66.8111 13.656L75.5471 0.151978H72.0911L65.4031 11.032L58.5551 0.151978H54.9391L63.7711 13.656V23H66.8111V13.656ZM78.1211 0.151978V23H81.1611V12.536H91.6571V9.97598H81.1611V2.71198H93.1291V0.151978H78.1211ZM96.4961 0.151978V23H111.632V20.44H99.5361V0.151978H96.4961ZM120.155 13.656L128.891 0.151978H125.435L118.747 11.032L111.899 0.151978H108.283L117.115 13.656V23H120.155V13.656Z" fill="black"/>
</g>
<defs>
<clipPath id="clip0_2_4">
<rect width="129" height="23" fill="white"/>
</clipPath>
</defs>
</svg>
