<svg width="52" height="52" viewBox="0 0 52 52" fill="none" xmlns="http://www.w3.org/2000/svg">
<path d="M17.035 27.765C15.1917 27.765 13.6867 27.1583 12.52 25.945C11.3533 24.7317 10.77 23.075 10.77 20.975C10.77 19.5983 11.0383 18.3967 11.575 17.37C12.1117 16.3433 12.8467 15.5617 13.78 15.025C14.7367 14.465 15.8217 14.185 17.035 14.185C18.9017 14.185 20.4183 14.8033 21.585 16.04C22.7517 17.2533 23.335 18.8983 23.335 20.975C23.335 23.075 22.7517 24.7317 21.585 25.945C20.4183 27.1583 18.9017 27.765 17.035 27.765ZM31.525 14.5H36.565L19.835 39H14.795L31.525 14.5ZM17.035 24.44C17.665 24.44 18.1667 24.16 18.54 23.6C18.9133 23.04 19.1 22.165 19.1 20.975C19.1 19.785 18.9133 18.91 18.54 18.35C18.1667 17.79 17.665 17.51 17.035 17.51C16.4283 17.51 15.9267 17.8017 15.53 18.385C15.1567 18.945 14.97 19.8083 14.97 20.975C14.97 22.1417 15.1567 23.0167 15.53 23.6C15.9267 24.16 16.4283 24.44 17.035 24.44ZM34.325 39.315C32.4583 39.315 30.9417 38.7083 29.775 37.495C28.6317 36.2817 28.06 34.625 28.06 32.525C28.06 30.4483 28.6433 28.8033 29.81 27.59C30.9767 26.3533 32.4817 25.735 34.325 25.735C36.1917 25.735 37.7083 26.3533 38.875 27.59C40.0417 28.8033 40.625 30.4483 40.625 32.525C40.625 34.625 40.0417 36.2817 38.875 37.495C37.7083 38.7083 36.1917 39.315 34.325 39.315ZM34.325 35.99C34.955 35.99 35.4567 35.71 35.83 35.15C36.2033 34.59 36.39 33.715 36.39 32.525C36.39 31.335 36.2033 30.46 35.83 29.9C35.4567 29.34 34.955 29.06 34.325 29.06C33.695 29.06 33.1933 29.34 32.82 29.9C32.4467 30.46 32.26 31.335 32.26 32.525C32.26 33.715 32.4467 34.59 32.82 35.15C33.1933 35.71 33.695 35.99 34.325 35.99Z" fill="white"/>
<circle cx="26" cy="26" r="25.5" stroke="white"/>
</svg>
