<?xml version="1.0" encoding="utf-8"?><svg viewBox="0 0 232 103" xmlns="http://www.w3.org/2000/svg" xmlns:xlink="http://www.w3.org/1999/xlink"><style>:root>svg{display:none}:root>svg:target{display:block}</style><svg fill="none" viewBox="0 0 232 103" id="sprite--button-price" xmlns="http://www.w3.org/2000/svg"><g filter="url(#aa)"><path d="M228 5a5 5 0 00-5-5H9a5 5 0 00-5 5v75.983a5 5 0 005 5h114.617A5 5 0 01126.64 87l8.775 6.66a5 5 0 006.123-.06l8.276-6.54a5 5 0 013.1-1.077H223a5 5 0 005-5V5z" fill="#FC9B09"/></g><defs><filter id="aa" x="0" y="0" width="232" height="102.676" filterUnits="userSpaceOnUse" color-interpolation-filters="sRGB"><feFlood flood-opacity="0" result="BackgroundImageFix"/><feColorMatrix in="SourceAlpha" values="0 0 0 0 0 0 0 0 0 0 0 0 0 0 0 0 0 0 127 0" result="hardAlpha"/><feOffset dy="4"/><feGaussianBlur stdDeviation="2"/><feColorMatrix values="0 0 0 0 0 0 0 0 0 0 0 0 0 0 0 0 0 0 0.1 0"/><feBlend in2="BackgroundImageFix" result="effect1_dropShadow_0_246"/><feBlend in="SourceGraphic" in2="effect1_dropShadow_0_246" result="shape"/></filter></defs></svg><svg fill="none" viewBox="0 0 31 31" id="sprite--icon-dialog" xmlns="http://www.w3.org/2000/svg"><path d="M28.093 16.141c1.436-1.478 2.302-3.393 2.302-5.485 0-4.681-4.7-8.476-10.051-8.476-5.35 0-9.688 3.795-9.688 8.476l9.688 8.477c1.43 0 3.15-.271 4.372-.758a6.038 6.038 0 004.468 1.969 4.281 4.281 0 01-1.091-4.203z" fill="#FC9B09"/><path d="M15.648 11.867c2.814 1.484 4.696 4.182 4.696 7.266 0 4.681-4.337 8.476-9.688 8.476-1.43 0-3.15-.27-4.372-.757a6.037 6.037 0 01-4.468 1.968 4.281 4.281 0 001.091-4.202C1.471 23.139.605 21.225.605 19.133c0-4.682 4.7-8.477 10.051-8.477 1.826 0 3.535.442 4.992 1.211zM15.5 7.629a.606.606 0 100 1.211.606.606 0 000-1.211z" fill="#fff"/><path d="M5.45 18.527a.606.606 0 10-.001-1.211.606.606 0 000 1.211z" fill="#C94042"/><path d="M20.344 1.574c-5.451 0-9.925 3.758-10.271 8.492C4.882 10.326 0 14.07 0 19.133c0 2.116.837 4.166 2.361 5.79a3.682 3.682 0 01-.973 3.47.606.606 0 00.428 1.033 6.68 6.68 0 004.628-1.87c1.204.41 2.776.659 4.212.659 5.45 0 9.924-3.757 10.27-8.49 1.269-.056 2.587-.29 3.63-.646a6.678 6.678 0 004.628 1.87.605.605 0 00.428-1.033 3.682 3.682 0 01-.973-3.47C30.163 14.822 31 12.773 31 10.657c0-5.26-5.258-9.082-10.656-9.082zm-9.688 25.43c-1.429 0-3.057-.28-4.148-.715a.606.606 0 00-.67.154 5.463 5.463 0 01-2.718 1.613 4.897 4.897 0 00.37-3.604.605.605 0 00-.149-.256c-1.373-1.415-2.13-3.213-2.13-5.063 0-4.267 4.325-7.871 9.445-7.871 4.835 0 9.082 3.362 9.082 7.87 0 4.341-4.074 7.872-9.082 7.872zM27.66 15.719a.608.608 0 00-.148.256 4.897 4.897 0 00.369 3.604 5.462 5.462 0 01-2.717-1.612.606.606 0 00-.671-.154c-.945.376-2.294.636-3.567.7-.177-2.29-1.32-4.443-3.272-6.04h7.898a.605.605 0 000-1.211h-9.758a11.292 11.292 0 00-4.506-1.194c.348-4.066 4.277-7.283 9.057-7.283 5.12 0 9.445 3.605 9.445 7.871 0 1.85-.757 3.649-2.13 5.063z" fill="#37373F"/><path d="M15.5 17.316H7.871a.605.605 0 100 1.211H15.5a.605.605 0 100-1.21z" fill="#C94042"/><path d="M15.5 20.95H5.45a.605.605 0 100 1.21H15.5a.606.606 0 000-1.21z" fill="#37373F"/><path d="M25.55 7.629h-7.628a.605.605 0 100 1.21h7.629a.605.605 0 100-1.21z" fill="#fff"/></svg><svg fill="none" viewBox="0 0 32 36" id="sprite--icon-feedback" xmlns="http://www.w3.org/2000/svg"><path d="M28.91 14.302h-5.13v-.709a.77.77 0 00-.772-.77H8.995a.77.77 0 00-.771.77v.709H3.092a.77.77 0 00-.77.77v3.491a3.55 3.55 0 001.046 2.526 3.55 3.55 0 002.526 1.047h2.527a7.796 7.796 0 006.81 5.995v3.47h-2.065c-1.192 0-2.162.97-2.162 2.162v1.268c0 .425.345.77.77.77h8.454a.77.77 0 00.771-.77v-1.268c0-1.192-.97-2.162-2.162-2.162h-2.065v-3.47a7.796 7.796 0 006.81-5.995h2.527a3.577 3.577 0 003.573-3.573v-3.49a.771.771 0 00-.771-.771zm-9.453 19.461v.497h-6.911v-.497a.62.62 0 01.62-.62h5.67a.62.62 0 01.621.62zM8.225 20.594h-2.33A2.017 2.017 0 014.457 20a2.018 2.018 0 01-.595-1.436v-2.72h4.362v4.751zm14.013-.203a6.243 6.243 0 01-6.236 6.237 6.243 6.243 0 01-6.237-6.236v-6.028h12.473v6.027zm1.54-4.548h4.362v2.72c0 1.12-.911 2.031-2.031 2.031h-2.331v-4.75z" fill="#37373F"/><path d="M12.729 7.099l-.578 3.052a.77.77 0 001.127.82l2.724-1.494 2.724 1.493a.77.77 0 001.128-.82l-.578-3.05 2.261-2.13a.771.771 0 00-.43-1.325l-3.082-.393L16.7.44a.77.77 0 00-1.394 0L13.98 3.25l-3.081.393a.77.77 0 00-.43 1.326l2.26 2.129zm1.864-2.372a.77.77 0 00.6-.436l.81-1.715.808 1.715a.771.771 0 00.6.436l1.88.24-1.38 1.3a.77.77 0 00-.229.704l.353 1.863-1.662-.912a.77.77 0 00-.741 0l-1.663.912.353-1.863a.77.77 0 00-.229-.705l-1.38-1.3 1.88-.24zM31.962 6.92a.77.77 0 00-.635-.526l-2.222-.284-.956-2.025a.77.77 0 00-1.394 0l-.956 2.025-2.222.284a.77.77 0 00-.431 1.326l1.63 1.535-.416 2.2a.77.77 0 001.128.82l1.964-1.076 1.964 1.076a.77.77 0 001.128-.82l-.417-2.2 1.63-1.535a.771.771 0 00.205-.8zm-3.2 1.502a.771.771 0 00-.229.705l.192 1.012-.903-.495a.77.77 0 00-.74 0l-.904.495.192-1.012a.771.771 0 00-.229-.705l-.75-.706 1.022-.13a.77.77 0 00.6-.435l.439-.931.44.93a.77.77 0 00.599.436l1.021.13-.75.706zM4.548 11.199l1.965 1.076a.77.77 0 001.127-.82l-.417-2.2L8.854 7.72a.77.77 0 00-.43-1.326L6.202 6.11l-.957-2.025a.77.77 0 00-1.394 0L2.895 6.11l-2.222.284a.77.77 0 00-.43 1.326l1.63 1.535-.417 2.2a.77.77 0 001.128.82L4.548 11.2zM3.51 7.586a.77.77 0 00.6-.435l.44-.931.439.93a.77.77 0 00.6.436l1.02.13-.749.706a.77.77 0 00-.229.705l.192 1.012-.903-.495a.77.77 0 00-.741 0l-.903.495.192-1.012a.771.771 0 00-.23-.705l-.75-.706 1.022-.13z" fill="#FC9B09"/></svg><svg fill="none" viewBox="0 0 33 33" id="sprite--icon-map-pin" xmlns="http://www.w3.org/2000/svg"><path d="M25.143 8.726A8.643 8.643 0 0016.5.082a8.643 8.643 0 00-8.644 8.644c0 6.84 8.644 16.962 8.644 16.962s8.644-10.157 8.644-16.962zM12.236 8.21a4.264 4.264 0 118.527 0 4.264 4.264 0 01-8.527 0z" fill="#37373F"/><path d="M16.5 10.306a2.096 2.096 0 10-.001-4.193 2.096 2.096 0 000 4.193z" fill="#C94042"/><path d="M21.386 22.68a61.419 61.419 0 01-1.916 2.618c5.462.328 9.042 1.508 10.374 2.385-1.56 1.028-6.196 2.475-13.344 2.475-7.147 0-11.783-1.447-13.343-2.475 1.332-.877 4.909-2.056 10.365-2.384a60.51 60.51 0 01-1.919-2.617C4.882 23.344 0 25.332 0 27.682c0 2.891 7.388 5.236 16.5 5.236 9.113 0 16.5-2.344 16.5-5.236.001-2.351-4.886-4.34-11.614-5.001z" fill="#37373F"/></svg><svg fill="none" viewBox="0 0 35 28" id="sprite--icon-photo" xmlns="http://www.w3.org/2000/svg"><path d="M34 11H1v10.5h32.75l.5-5.717L34 11z" fill="#FC9B09"/><path d="M.672 21.933v4.045c0 .745.603 1.348 1.348 1.348h30.47c.745 0 1.349-.603 1.349-1.348v-4.045H.672zM32.49 5.754h-7.82l-2.323-4.647A1.349 1.349 0 0021.14.36h-7.77c-.51 0-.978.289-1.206.746L9.84 5.754H7.413V4.406c0-.745-.603-1.348-1.348-1.348H4.717c-.745 0-1.349.603-1.349 1.348v1.348H2.02c-.745 0-1.348.604-1.348 1.349v4.044h33.167V7.103c0-.745-.604-1.349-1.349-1.349z" fill="#fff"/><path d="M25.5 17c0 4.685-3.739 8-8.284 8C12.67 25 9.865 20.538 9 16.5c0-4.685 3.955-8 8.5-8 4.546 0 8 3.816 8 8.5z" fill="#57555C"/><path d="M17.5 12c2.481 0 4.5 2.019 4.5 4.5S19.981 21 17.5 21a4.505 4.505 0 01-4.5-4.5c0-2.481 2.019-4.5 4.5-4.5z" fill="#fff"/><path d="M26.5 9c.276 0 .5-.448.5-1s-.224-1-.5-1-.5.448-.5 1 .224 1 .5 1z" fill="#37373F"/><path d="M32.95 5.333h-7.508l-2.167-4.227A2.046 2.046 0 0021.44 0h-7.88c-.782 0-1.485.424-1.835 1.106L9.558 5.333H8.203v-.666c0-1.103-.92-2-2.05-2H4.784c-1.13 0-2.05.897-2.05 2v.666H2.05c-1.13 0-2.05.898-2.05 2V26c0 1.103.92 2 2.05 2h30.9c1.13 0 2.05-.897 2.05-2V7.333c0-1.102-.92-2-2.05-2zm-31.583 6.66h8.644a8.492 8.492 0 000 9.34H1.367v-9.34zm8.613 4.674c0-4.08 3.404-7.334 7.52-7.334 4.11 0 7.52 3.248 7.52 7.334 0 4.08-3.405 7.333-7.52 7.333-4.12 0-7.52-3.256-7.52-7.333zm16.407 0c0-1.668-.49-3.283-1.398-4.667h8.644v9.333h-8.644a8.492 8.492 0 001.398-4.666zM12.948 1.702a.682.682 0 01.612-.369h7.88c.26 0 .495.142.612.37l1.861 3.63H11.086l1.862-3.63zM4.102 4.667c0-.368.306-.667.683-.667h1.367c.377 0 .684.3.684.667v.666H4.102v-.666zm-2.051 2h30.898c.377 0 .684.299.684.666v3.334H23.91A9.003 9.003 0 0017.5 8c-2.422 0-4.74.969-6.41 2.667H1.367V7.333c0-.367.307-.666.684-.666zm30.898 20H2.051A.676.676 0 011.367 26v-3.333h9.723a9.003 9.003 0 006.41 2.666c2.422 0 4.74-.968 6.41-2.666h9.723V26a.676.676 0 01-.684.667z" fill="#37373F"/><path d="M17.5 23c3.584 0 6.5-2.916 6.5-6.5S21.084 10 17.5 10a6.507 6.507 0 00-6.5 6.5c0 3.584 2.916 6.5 6.5 6.5zm0-11.556a5.061 5.061 0 015.056 5.056 5.061 5.061 0 01-5.056 5.056 5.061 5.061 0 01-5.056-5.056 5.061 5.061 0 015.056-5.056z" fill="#37373F"/><path d="M14.466 16.046c.257.042.51-.2.568-.543.17-1.025.933-1.756 1.702-1.629.257.043.51-.2.567-.542.057-.343-.105-.655-.362-.697-1.281-.212-2.554 1.005-2.837 2.714-.057.342.105.654.362.697z" fill="#5286EC"/><path d="M29.75 9h1.5c.414 0 .75-.448.75-1s-.336-1-.75-1h-1.5c-.414 0-.75.448-.75 1s.336 1 .75 1z" fill="#37373F"/></svg><svg fill="none" viewBox="0 0 40 37" id="sprite--icon-time" xmlns="http://www.w3.org/2000/svg"><path fill="#fff" d="M0 0h40v37H0z"/><path d="M32.262 28.237c2.52-2.71 3.907-6.169 3.907-9.737 0-8.248-7.254-14.958-16.17-14.958-8.917 0-16.17 6.71-16.17 14.958 0 8.247 7.253 14.957 16.17 14.957 3.857 0 7.596-1.283 10.526-3.613a.675.675 0 01.891.054c.313-.268.615-.547.905-.836a.56.56 0 01-.059-.825zM19.36 5.314c0-.326.286-.59.638-.59.353 0 .639.264.639.59v2.361c0 .327-.286.59-.639.59-.352 0-.638-.263-.638-.59V5.314zM8.296 19.09H5.743c-.352 0-.638-.264-.638-.59 0-.326.286-.59.638-.59h2.553c.353 0 .639.264.639.59 0 .326-.286.59-.639.59zm12.34 12.596c0 .326-.285.59-.638.59-.352 0-.638-.264-.638-.59v-2.362c0-.326.286-.59.638-.59.353 0 .639.264.639.59v2.362zm9.894-20.423l-8.227 7.61c-.191 1.016-1.152 1.792-2.305 1.792-.414 0-.802-.1-1.14-.275l-6.68 6.178a.664.664 0 01-.45.173.663.663 0 01-.452-.173.56.56 0 010-.835l6.68-6.178a2.048 2.048 0 01-.263-.682l-5.518-5.105a.56.56 0 010-.835l1.805-1.67c.25-.23.654-.23.903 0l5.518 5.105.081.014.87-.805a.56.56 0 010-.834l6.47-5.985a.665.665 0 01.451-.172c.17 0 .332.062.451.172l1.806 1.67a.56.56 0 010 .835zm1.17 7.827c-.352 0-.638-.264-.638-.59 0-.326.286-.59.639-.59h2.553c.352 0 .638.264.638.59 0 .326-.286.59-.638.59H31.7z" fill="#C7C7C7"/><path d="M32.262 28.237c2.52-2.71 3.907-6.169 3.907-9.737 0-8.248-7.254-14.958-16.17-14.958-8.917 0-16.17 6.71-16.17 14.958 0 8.247 7.253 14.957 16.17 14.957 3.857 0 7.596-1.283 10.526-3.613a.675.675 0 01.891.054c.313-.268.615-.547.905-.836a.56.56 0 01-.059-.825zM19.36 5.314c0-.326.286-.59.638-.59.353 0 .639.264.639.59v2.361c0 .327-.286.59-.639.59-.352 0-.638-.263-.638-.59V5.314zM8.296 19.09H5.743c-.352 0-.638-.264-.638-.59 0-.326.286-.59.638-.59h2.553c.353 0 .639.264.639.59 0 .326-.286.59-.639.59zm12.34 12.596c0 .326-.285.59-.638.59-.352 0-.638-.264-.638-.59v-2.362c0-.326.286-.59.638-.59.353 0 .639.264.639.59v2.362zm9.894-20.423l-8.227 7.61c-.191 1.016-1.152 1.792-2.305 1.792-.414 0-.802-.1-1.14-.275l-6.68 6.178a.664.664 0 01-.45.173.663.663 0 01-.452-.173.56.56 0 010-.835l6.68-6.178a2.048 2.048 0 01-.263-.682l-5.518-5.105a.56.56 0 010-.835l1.805-1.67c.25-.23.654-.23.903 0l5.518 5.105.081.014.87-.805a.56.56 0 010-.834l6.47-5.985a.665.665 0 01.451-.172c.17 0 .332.062.451.172l1.806 1.67a.56.56 0 010 .835zm1.17 7.827c-.352 0-.638-.264-.638-.59 0-.326.286-.59.639-.59h2.553c.352 0 .638.264.638.59 0 .326-.286.59-.638.59H31.7z" fill="url(#fa)"/><path d="M17.957 17.445a2.28 2.28 0 01.902-.835l-4.426-4.094-.903.835 4.427 4.094z" fill="#C7C7C7"/><path d="M17.957 17.445a2.28 2.28 0 01.902-.835l-4.426-4.094-.903.835 4.427 4.094z" fill="url(#fb)"/><path d="M22.042 17.445l7.135-6.599-.903-.835-6.018 5.567a.676.676 0 01-.903 0l-.87.804a2.34 2.34 0 011.56 1.063z" fill="#C7C7C7"/><path d="M22.042 17.445l7.135-6.599-.903-.835-6.018 5.567a.676.676 0 01-.903 0l-.87.804a2.34 2.34 0 011.56 1.063z" fill="url(#fc)"/><path d="M20.003 1.181c-10.324 0-18.724 7.77-18.724 17.32s8.4 17.318 18.724 17.318S38.726 28.05 38.726 18.5c0-9.55-8.4-17.319-18.723-17.319zm13.232 27.826a.675.675 0 01-.9.063l-.01-.008c-.29.29-.591.569-.904.837l.008.008c.23.247.2.62-.068.833-3.162 2.514-7.195 3.899-11.358 3.899-9.62 0-17.447-7.24-17.447-16.139 0-8.898 7.826-16.138 17.447-16.138 9.62 0 17.447 7.24 17.447 16.138 0 3.851-1.497 7.582-4.215 10.507z" fill="#C7C7C7"/><path d="M20.003 1.181c-10.324 0-18.724 7.77-18.724 17.32s8.4 17.318 18.724 17.318S38.726 28.05 38.726 18.5c0-9.55-8.4-17.319-18.723-17.319zm13.232 27.826a.675.675 0 01-.9.063l-.01-.008c-.29.29-.591.569-.904.837l.008.008c.23.247.2.62-.068.833-3.162 2.514-7.195 3.899-11.358 3.899-9.62 0-17.447-7.24-17.447-16.139 0-8.898 7.826-16.138 17.447-16.138 9.62 0 17.447 7.24 17.447 16.138 0 3.851-1.497 7.582-4.215 10.507z" fill="url(#fd)"/><path d="M34.142 5.419C30.365 1.924 25.342 0 20 0 14.658 0 9.635 1.924 5.858 5.419 2.08 8.913 0 13.559 0 18.5c0 4.942 2.08 9.587 5.858 13.081C9.635 35.076 14.658 37 20 37c5.342 0 10.365-1.924 14.142-5.419C37.92 28.087 40 23.441 40 18.5c0-4.941-2.08-9.587-5.858-13.081zM20 35.819C9.676 35.82 1.277 28.05 1.277 18.5 1.277 8.95 9.676 1.18 20 1.18S38.723 8.95 38.723 18.5 30.324 35.82 20 35.82z" fill="#C7C7C7"/><path d="M34.142 5.419C30.365 1.924 25.342 0 20 0 14.658 0 9.635 1.924 5.858 5.419 2.08 8.913 0 13.559 0 18.5c0 4.942 2.08 9.587 5.858 13.081C9.635 35.076 14.658 37 20 37c5.342 0 10.365-1.924 14.142-5.419C37.92 28.087 40 23.441 40 18.5c0-4.941-2.08-9.587-5.858-13.081zM20 35.819C9.676 35.82 1.277 28.05 1.277 18.5 1.277 8.95 9.676 1.18 20 1.18S38.723 8.95 38.723 18.5 30.324 35.82 20 35.82z" fill="url(#fe)"/><path d="M21.063 18.5c0-.543-.477-.984-1.064-.984-.586 0-1.063.442-1.063.984 0 .543.477.984 1.063.984.587 0 1.064-.441 1.064-.984z" fill="#C7C7C7"/><path d="M21.063 18.5c0-.543-.477-.984-1.064-.984-.586 0-1.063.442-1.063.984 0 .543.477.984 1.063.984.587 0 1.064-.441 1.064-.984z" fill="url(#ff)"/><path d="M34.894 18.5c0-.326-.285-.59-.638-.59h-2.553c-.353 0-.639.264-.639.59 0 .326.286.59.639.59h2.553c.352 0 .638-.264.638-.59z" fill="#C7C7C7"/><path d="M34.894 18.5c0-.326-.285-.59-.638-.59h-2.553c-.353 0-.639.264-.639.59 0 .326.286.59.639.59h2.553c.352 0 .638-.264.638-.59z" fill="url(#fg)"/><path d="M20.003 28.734c-.352 0-.638.264-.638.59v2.362c0 .326.286.59.639.59.352 0 .638-.264.638-.59v-2.362c0-.326-.286-.59-.639-.59z" fill="#C7C7C7"/><path d="M20.003 28.734c-.352 0-.638.264-.638.59v2.362c0 .326.286.59.639.59.352 0 .638-.264.638-.59v-2.362c0-.326-.286-.59-.639-.59z" fill="url(#fh)"/><path d="M8.299 17.91H5.746c-.353 0-.639.264-.639.59 0 .326.286.59.639.59h2.553c.352 0 .638-.264.638-.59 0-.326-.286-.59-.638-.59z" fill="#C7C7C7"/><path d="M8.299 17.91H5.746c-.353 0-.639.264-.639.59 0 .326.286.59.639.59h2.553c.352 0 .638-.264.638-.59 0-.326-.286-.59-.638-.59z" fill="url(#fi)"/><path d="M28.729 8.758a.665.665 0 00-.452-.173.665.665 0 00-.45.173l-6.47 5.985a.56.56 0 000 .834.674.674 0 00.902 0l6.018-5.566.903.835-7.134 6.6a2.342 2.342 0 00-1.56-1.064l-.08-.014-5.519-5.105a.675.675 0 00-.902 0l-1.806 1.67a.56.56 0 000 .835l5.519 5.105c.046.243.136.473.262.681l-6.68 6.179a.56.56 0 000 .835.664.664 0 00.452.173.663.663 0 00.451-.173l6.68-6.178c.337.174.726.275 1.14.275 1.153 0 2.113-.776 2.305-1.792l8.226-7.61a.56.56 0 000-.835l-1.805-1.67zm-9.866 7.852a2.275 2.275 0 00-.903.835l-4.427-4.094.903-.835 4.427 4.094zm.076 1.89c0-.543.477-.984 1.064-.984.586 0 1.064.441 1.064.984 0 .543-.478.984-1.064.984-.587 0-1.064-.441-1.064-.984z" fill="#C7C7C7"/><path d="M28.729 8.758a.665.665 0 00-.452-.173.665.665 0 00-.45.173l-6.47 5.985a.56.56 0 000 .834.674.674 0 00.902 0l6.018-5.566.903.835-7.134 6.6a2.342 2.342 0 00-1.56-1.064l-.08-.014-5.519-5.105a.675.675 0 00-.902 0l-1.806 1.67a.56.56 0 000 .835l5.519 5.105c.046.243.136.473.262.681l-6.68 6.179a.56.56 0 000 .835.664.664 0 00.452.173.663.663 0 00.451-.173l6.68-6.178c.337.174.726.275 1.14.275 1.153 0 2.113-.776 2.305-1.792l8.226-7.61a.56.56 0 000-.835l-1.805-1.67zm-9.866 7.852a2.275 2.275 0 00-.903.835l-4.427-4.094.903-.835 4.427 4.094zm.076 1.89c0-.543.477-.984 1.064-.984.586 0 1.064.441 1.064.984 0 .543-.478.984-1.064.984-.587 0-1.064-.441-1.064-.984z" fill="url(#fj)"/><path d="M20 2.362c-9.62 0-17.446 7.24-17.446 16.138 0 8.899 7.826 16.138 17.447 16.138 4.162 0 8.196-1.384 11.358-3.898a.56.56 0 00.068-.833l-.008-.009a.675.675 0 00-.892-.054c-2.93 2.33-6.669 3.613-10.527 3.613-8.916 0-16.17-6.71-16.17-14.957 0-8.248 7.254-14.958 16.17-14.958 8.917 0 16.17 6.71 16.17 14.958 0 3.568-1.387 7.026-3.906 9.737a.56.56 0 00.06.825l.008.008c.268.212.67.184.9-.063 2.719-2.925 4.215-6.656 4.215-10.507 0-8.9-7.826-16.138-17.447-16.138z" fill="#C7C7C7"/><path d="M20 2.362c-9.62 0-17.446 7.24-17.446 16.138 0 8.899 7.826 16.138 17.447 16.138 4.162 0 8.196-1.384 11.358-3.898a.56.56 0 00.068-.833l-.008-.009a.675.675 0 00-.892-.054c-2.93 2.33-6.669 3.613-10.527 3.613-8.916 0-16.17-6.71-16.17-14.957 0-8.248 7.254-14.958 16.17-14.958 8.917 0 16.17 6.71 16.17 14.958 0 3.568-1.387 7.026-3.906 9.737a.56.56 0 00.06.825l.008.008c.268.212.67.184.9-.063 2.719-2.925 4.215-6.656 4.215-10.507 0-8.9-7.826-16.138-17.447-16.138z" fill="url(#fk)"/><defs><linearGradient id="fa" x1="19.998" y1="3.542" x2="19.998" y2="33.457" gradientUnits="userSpaceOnUse"><stop stop-color="#fff"/><stop offset="1" stop-color="#fff" stop-opacity="0"/></linearGradient><linearGradient id="fb" x1="16.195" y1="12.516" x2="16.195" y2="17.445" gradientUnits="userSpaceOnUse"><stop stop-color="#fff"/><stop offset="1" stop-color="#fff" stop-opacity="0"/></linearGradient><linearGradient id="fc" x1="24.83" y1="10.011" x2="24.83" y2="17.445" gradientUnits="userSpaceOnUse"><stop stop-color="#fff"/><stop offset="1" stop-color="#fff" stop-opacity="0"/></linearGradient><linearGradient id="fd" x1="20.003" y1="1.181" x2="20.003" y2="35.819" gradientUnits="userSpaceOnUse"><stop stop-color="#fff"/><stop offset="1" stop-color="#fff" stop-opacity="0"/></linearGradient><linearGradient id="fe" x1="20" y1="0" x2="20" y2="37" gradientUnits="userSpaceOnUse"><stop stop-color="#fff"/><stop offset="1" stop-color="#fff" stop-opacity="0"/></linearGradient><linearGradient id="ff" x1="19.999" y1="17.516" x2="19.999" y2="19.484" gradientUnits="userSpaceOnUse"><stop stop-color="#fff"/><stop offset="1" stop-color="#fff" stop-opacity="0"/></linearGradient><linearGradient id="fg" x1="32.979" y1="17.909" x2="32.979" y2="19.09" gradientUnits="userSpaceOnUse"><stop stop-color="#fff"/><stop offset="1" stop-color="#fff" stop-opacity="0"/></linearGradient><linearGradient id="fh" x1="20.003" y1="28.734" x2="20.003" y2="32.276" gradientUnits="userSpaceOnUse"><stop stop-color="#fff"/><stop offset="1" stop-color="#fff" stop-opacity="0"/></linearGradient><linearGradient id="fi" x1="7.022" y1="17.909" x2="7.022" y2="19.09" gradientUnits="userSpaceOnUse"><stop stop-color="#fff"/><stop offset="1" stop-color="#fff" stop-opacity="0"/></linearGradient><linearGradient id="fj" x1="20.907" y1="8.585" x2="20.907" y2="26.741" gradientUnits="userSpaceOnUse"><stop stop-color="#fff"/><stop offset="1" stop-color="#fff" stop-opacity="0"/></linearGradient><linearGradient id="fk" x1="20" y1="2.362" x2="20" y2="34.638" gradientUnits="userSpaceOnUse"><stop stop-color="#fff"/><stop offset="1" stop-color="#fff" stop-opacity="0"/></linearGradient></defs></svg><svg fill="none" viewBox="0 0 129 23" id="sprite--logo" xmlns="http://www.w3.org/2000/svg"><g clip-path="url(#ga)"><path d="M.496.152V23h3.04V12.536h12.032V23h3.04V.152h-3.04v9.824H3.536V.152H.496zm23.094 0V23h15.872v-2.56H26.63v-7.904h11.872v-2.56H26.63V2.712h12.736V.152H23.59zm19.562 0V23h15.136v-2.56H46.192V.152h-3.04zm23.66 13.504L75.546.152H72.09l-6.688 10.88L58.555.152H54.94l8.832 13.504V23h3.04v-9.344zM78.121.152V23h3.04V12.536h10.495v-2.56H81.161V2.712H93.13V.152H78.121zm18.374 0V23h15.136v-2.56H99.536V.152h-3.04zm23.659 13.504L128.891.152h-3.456l-6.688 10.88-6.848-10.88h-3.616l8.832 13.504V23h3.04v-9.344z" fill="#000"/></g><defs><clipPath id="ga"><path fill="#fff" d="M0 0h129v23H0z"/></clipPath></defs></svg><svg fill="none" viewBox="0 0 52 52" id="sprite--price-discount" xmlns="http://www.w3.org/2000/svg"><path d="M17.035 27.765c-1.843 0-3.348-.607-4.515-1.82-1.167-1.213-1.75-2.87-1.75-4.97 0-1.377.268-2.578.805-3.605.537-1.027 1.272-1.808 2.205-2.345.957-.56 2.042-.84 3.255-.84 1.867 0 3.383.618 4.55 1.855 1.167 1.213 1.75 2.858 1.75 4.935 0 2.1-.583 3.757-1.75 4.97-1.167 1.213-2.683 1.82-4.55 1.82zM31.525 14.5h5.04L19.835 39h-5.04l16.73-24.5zm-14.49 9.94c.63 0 1.132-.28 1.505-.84.373-.56.56-1.435.56-2.625s-.187-2.065-.56-2.625c-.373-.56-.875-.84-1.505-.84-.607 0-1.108.292-1.505.875-.373.56-.56 1.423-.56 2.59 0 1.167.187 2.042.56 2.625.397.56.898.84 1.505.84zm17.29 14.875c-1.867 0-3.383-.607-4.55-1.82-1.143-1.213-1.715-2.87-1.715-4.97 0-2.077.583-3.722 1.75-4.935 1.167-1.237 2.672-1.855 4.515-1.855 1.867 0 3.383.618 4.55 1.855 1.167 1.213 1.75 2.858 1.75 4.935 0 2.1-.583 3.757-1.75 4.97-1.167 1.213-2.683 1.82-4.55 1.82zm0-3.325c.63 0 1.132-.28 1.505-.84.373-.56.56-1.435.56-2.625s-.187-2.065-.56-2.625c-.373-.56-.875-.84-1.505-.84-.63 0-1.132.28-1.505.84-.373.56-.56 1.435-.56 2.625s.187 2.065.56 2.625c.373.56.875.84 1.505.84z" fill="#fff"/><circle cx="26" cy="26" r="25.5" stroke="#fff"/></svg></svg>