<svg width="31" height="27" fill="none" xmlns="http://www.w3.org/2000/svg"><path d="M3.53 16.92l-.002-.001C1.898 14.795.747 12.282.53 9.674.15 4.933 3.27.5 8.23.5c2.939 0 5.5 1.585 6.862 3.962l.44.766.43-.771c1.31-2.345 3.891-3.932 6.834-3.932 4.98 0 8.055 4.429 7.672 9.173-.215 2.605-1.388 5.094-2.998 7.223-1.904 2.493-4.305 4.466-6.886 6.288l-.006.003-.026.019-.1.069-.368.255-1.212.841-2.783 1.933a1.017 1.017 0 01-1.133-.003 898.191 898.191 0 00-4.013-2.772l-.371-.255-.1-.07-.027-.017-.007-.005c-2.583-1.823-5.031-3.82-6.909-6.286z" fill="#FC9B09" stroke="#FC9B09"/></svg>