<svg width="32" height="36" fill="none" xmlns="http://www.w3.org/2000/svg"><path d="M28.91 14.302h-5.13v-.709a.77.77 0 00-.772-.77H8.995a.77.77 0 00-.771.77v.709H3.092a.77.77 0 00-.77.77v3.491a3.55 3.55 0 001.046 2.526 3.55 3.55 0 002.526 1.047h2.527a7.796 7.796 0 006.81 5.995v3.47h-2.065c-1.192 0-2.162.97-2.162 2.162v1.268c0 .425.345.77.77.77h8.454a.77.77 0 00.771-.77v-1.268c0-1.192-.97-2.162-2.162-2.162h-2.065v-3.47a7.796 7.796 0 006.81-5.995h2.527a3.577 3.577 0 003.573-3.573v-3.49a.771.771 0 00-.771-.771zm-9.453 19.461v.497h-6.911v-.497a.62.62 0 01.62-.62h5.67a.62.62 0 01.621.62zM8.225 20.594h-2.33A2.017 2.017 0 014.457 20a2.018 2.018 0 01-.595-1.436v-2.72h4.362v4.751zm14.013-.203a6.243 6.243 0 01-6.236 6.237 6.243 6.243 0 01-6.237-6.236v-6.028h12.473v6.027zm1.54-4.548h4.362v2.72c0 1.12-.911 2.031-2.031 2.031h-2.331v-4.75z" fill="#37373F"/><path d="M12.729 7.099l-.578 3.052a.77.77 0 001.127.82l2.724-1.494 2.724 1.493a.77.77 0 001.128-.82l-.578-3.05 2.261-2.13a.771.771 0 00-.43-1.325l-3.082-.393L16.7.44a.77.77 0 00-1.394 0L13.98 3.25l-3.081.393a.77.77 0 00-.43 1.326l2.26 2.129zm1.864-2.372a.77.77 0 00.6-.436l.81-1.715.808 1.715a.771.771 0 00.6.436l1.88.24-1.38 1.3a.77.77 0 00-.229.704l.353 1.863-1.662-.912a.77.77 0 00-.741 0l-1.663.912.353-1.863a.77.77 0 00-.229-.705l-1.38-1.3 1.88-.24zM31.962 6.92a.77.77 0 00-.635-.526l-2.222-.284-.956-2.025a.77.77 0 00-1.394 0l-.956 2.025-2.222.284a.77.77 0 00-.431 1.326l1.63 1.535-.416 2.2a.77.77 0 001.128.82l1.964-1.076 1.964 1.076a.77.77 0 001.128-.82l-.417-2.2 1.63-1.535a.771.771 0 00.205-.8zm-3.2 1.502a.771.771 0 00-.229.705l.192 1.012-.903-.495a.77.77 0 00-.74 0l-.904.495.192-1.012a.771.771 0 00-.229-.705l-.75-.706 1.022-.13a.77.77 0 00.6-.435l.439-.931.44.93a.77.77 0 00.599.436l1.021.13-.75.706zM4.548 11.199l1.965 1.076a.77.77 0 001.127-.82l-.417-2.2L8.854 7.72a.77.77 0 00-.43-1.326L6.202 6.11l-.957-2.025a.77.77 0 00-1.394 0L2.895 6.11l-2.222.284a.77.77 0 00-.43 1.326l1.63 1.535-.417 2.2a.77.77 0 001.128.82L4.548 11.2zM3.51 7.586a.77.77 0 00.6-.435l.44-.931.439.93a.77.77 0 00.6.436l1.02.13-.749.706a.77.77 0 00-.229.705l.192 1.012-.903-.495a.77.77 0 00-.741 0l-.903.495.192-1.012a.771.771 0 00-.23-.705l-.75-.706 1.022-.13z" fill="#FC9B09"/></svg>