<svg width="27" height="27" fill="none" xmlns="http://www.w3.org/2000/svg"><path fill-rule="evenodd" clip-rule="evenodd" d="M19.671 7.471H17.79v-.868a.432.432 0 10-.864 0v.868h-2.607v-.868a.432.432 0 00-.864 0v.868h-2.608v-.868a.432.432 0 10-.864 0v.868H8.1A1.157 1.157 0 006.943 8.63V18.9A1.157 1.157 0 008.1 20.058h11.571A1.157 1.157 0 0020.83 18.9V8.629a1.157 1.157 0 00-1.16-1.159zm.286 11.429a.285.285 0 01-.286.29H8.1a.291.291 0 01-.293-.29V8.629a.292.292 0 01.293-.29h1.882v.868a.432.432 0 00.864 0V8.34h2.608v.868a.432.432 0 10.864 0V8.34h2.607v.868a.432.432 0 00.864 0V8.34h1.882a.285.285 0 01.286.29V18.9zm-9.975-7.522h1.736v1.301H9.982v-1.301zm0 2.17h1.736v1.301H9.982v-1.302zm0 2.17h1.736v1.3H9.982v-1.3zm3.032 0h1.736v1.3h-1.736v-1.3zm0-2.17h1.736v1.301h-1.736v-1.302zm0-2.17h1.736v1.301h-1.736v-1.301zm3.04 4.34h1.735v1.3h-1.736v-1.3zm0-2.17h1.735v1.301h-1.736v-1.302zm0-2.17h1.735v1.301h-1.736v-1.301z" fill="#FC9B09"/><rect x=".25" y=".25" width="26.5" height="26.5" rx="2.75" stroke="#C4C4C4" stroke-width=".5"/></svg>