<svg width="35" height="28" fill="none" xmlns="http://www.w3.org/2000/svg"><path d="M34 11H1v10.5h32.75l.5-5.717L34 11z" fill="#FC9B09"/><path d="M.672 21.933v4.045c0 .745.603 1.348 1.348 1.348h30.47c.745 0 1.349-.603 1.349-1.348v-4.045H.672zM32.49 5.754h-7.82l-2.323-4.647A1.349 1.349 0 0021.14.36h-7.77c-.51 0-.978.289-1.206.746L9.84 5.754H7.413V4.406c0-.745-.603-1.348-1.348-1.348H4.717c-.745 0-1.349.603-1.349 1.348v1.348H2.02c-.745 0-1.348.604-1.348 1.349v4.044h33.167V7.103c0-.745-.604-1.349-1.349-1.349z" fill="#fff"/><path d="M25.5 17c0 4.685-3.739 8-8.284 8C12.67 25 9.865 20.538 9 16.5c0-4.685 3.955-8 8.5-8 4.546 0 8 3.816 8 8.5z" fill="#57555C"/><path d="M17.5 12c2.481 0 4.5 2.019 4.5 4.5S19.981 21 17.5 21a4.505 4.505 0 01-4.5-4.5c0-2.481 2.019-4.5 4.5-4.5z" fill="#fff"/><path d="M26.5 9c.276 0 .5-.448.5-1s-.224-1-.5-1-.5.448-.5 1 .224 1 .5 1z" fill="#37373F"/><path d="M32.95 5.333h-7.508l-2.167-4.227A2.046 2.046 0 0021.44 0h-7.88c-.782 0-1.485.424-1.835 1.106L9.558 5.333H8.203v-.666c0-1.103-.92-2-2.05-2H4.784c-1.13 0-2.05.897-2.05 2v.666H2.05c-1.13 0-2.05.898-2.05 2V26c0 1.103.92 2 2.05 2h30.9c1.13 0 2.05-.897 2.05-2V7.333c0-1.102-.92-2-2.05-2zm-31.583 6.66h8.644a8.492 8.492 0 000 9.34H1.367v-9.34zm8.613 4.674c0-4.08 3.404-7.334 7.52-7.334 4.11 0 7.52 3.248 7.52 7.334 0 4.08-3.405 7.333-7.52 7.333-4.12 0-7.52-3.256-7.52-7.333zm16.407 0c0-1.668-.49-3.283-1.398-4.667h8.644v9.333h-8.644a8.492 8.492 0 001.398-4.666zM12.948 1.702a.682.682 0 01.612-.369h7.88c.26 0 .495.142.612.37l1.861 3.63H11.086l1.862-3.63zM4.102 4.667c0-.368.306-.667.683-.667h1.367c.377 0 .684.3.684.667v.666H4.102v-.666zm-2.051 2h30.898c.377 0 .684.299.684.666v3.334H23.91A9.003 9.003 0 0017.5 8c-2.422 0-4.74.969-6.41 2.667H1.367V7.333c0-.367.307-.666.684-.666zm30.898 20H2.051A.676.676 0 011.367 26v-3.333h9.723a9.003 9.003 0 006.41 2.666c2.422 0 4.74-.968 6.41-2.666h9.723V26a.676.676 0 01-.684.667z" fill="#37373F"/><path d="M17.5 23c3.584 0 6.5-2.916 6.5-6.5S21.084 10 17.5 10a6.507 6.507 0 00-6.5 6.5c0 3.584 2.916 6.5 6.5 6.5zm0-11.556a5.061 5.061 0 015.056 5.056 5.061 5.061 0 01-5.056 5.056 5.061 5.061 0 01-5.056-5.056 5.061 5.061 0 015.056-5.056z" fill="#37373F"/><path d="M14.466 16.046c.257.042.51-.2.568-.543.17-1.025.933-1.756 1.702-1.629.257.043.51-.2.567-.542.057-.343-.105-.655-.362-.697-1.281-.212-2.554 1.005-2.837 2.714-.057.342.105.654.362.697z" fill="#5286EC"/><path d="M29.75 9h1.5c.414 0 .75-.448.75-1s-.336-1-.75-1h-1.5c-.414 0-.75.448-.75 1s.336 1 .75 1z" fill="#37373F"/></svg>